<svg width="20" height="20" viewBox="0 0 20 20" fill="none" xmlns="http://www.w3.org/2000/svg">
<path d="M1.87498 0C0.837492 0 0 0.837491 0 1.87248V18.0986C0 19.1336 0.838742 19.971 1.87498 19.971H3.12497C4.15871 19.971 4.9987 19.1336 4.9987 18.0986V1.87248C4.9987 0.837491 4.15871 0 3.12372 0H1.87373H1.87498ZM8.12242 0C7.08743 0 6.24744 0.837491 6.24744 1.87248V18.0986C6.24744 19.1336 7.08743 19.971 8.12242 19.971H9.37241C10.4074 19.971 11.2461 19.1336 11.2461 18.0986V1.87248C11.2461 0.838741 10.4074 0 9.37115 0H8.12117H8.12242ZM17.1473 5.1962C17.0902 4.94875 16.9834 4.71549 16.8335 4.51055C16.6835 4.30562 16.4934 4.13329 16.2749 4.00401C16.0563 3.87473 15.8137 3.7912 15.5619 3.75849C15.3101 3.72578 15.0542 3.74457 14.8098 3.81371L13.8786 4.07621C13.4237 4.20484 13.0342 4.50081 12.7884 4.9047C12.5427 5.30859 12.4588 5.79051 12.5536 6.25369L15.0573 18.5023C15.1085 18.7506 15.2095 18.9859 15.3541 19.194C15.4988 19.4022 15.6841 19.5788 15.899 19.7133C16.1139 19.8478 16.3538 19.9373 16.6042 19.9764C16.8546 20.0156 17.1104 20.0035 17.3561 19.941L18.5873 19.6286C19.5748 19.3786 20.1798 18.3861 19.9523 17.3948L17.1473 5.19495V5.1962Z" fill="#F27059"/>
</svg>
