<svg width="42" height="218" viewBox="0 0 42 218" fill="none" xmlns="http://www.w3.org/2000/svg">
<path d="M11.5504 8.3999C11.5515 7.28672 11.9945 6.21951 12.782 5.43277C13.5696 4.64602 14.6372 4.2041 15.7504 4.2041H26.2504C27.3636 4.2041 28.4312 4.64602 29.2188 5.43277C30.0063 6.21951 30.4493 7.28672 30.4504 8.3999H32.542C33.3774 8.3999 34.1786 8.73178 34.7694 9.32251C35.3601 9.91325 35.692 10.7145 35.692 11.5499V14.7104C35.6921 16.2354 35.1382 17.7085 34.1335 18.8558C33.1288 20.0031 31.7416 20.7463 30.2299 20.9474C29.802 22.8711 28.7839 24.6132 27.3179 25.9302C25.8518 27.2472 24.0109 28.0733 22.0525 28.2932V31.4327H26.2588C27.3727 31.4327 28.441 31.8752 29.2286 32.6629C30.0163 33.4505 30.4588 34.5188 30.4588 35.6327V36.6827C30.4588 36.9612 30.3482 37.2283 30.1513 37.4252C29.9543 37.6221 29.6873 37.7327 29.4088 37.7327H12.6088C12.3303 37.7327 12.0632 37.6221 11.8663 37.4252C11.6694 37.2283 11.5588 36.9612 11.5588 36.6827V35.6327C11.5588 34.5188 12.0013 33.4505 12.7889 32.6629C13.5766 31.8752 14.6449 31.4327 15.7588 31.4327H19.9525V28.2932C17.9927 28.0736 16.1506 27.2468 14.684 25.9286C13.2173 24.6103 12.1995 22.8665 11.773 20.9411C10.2582 20.7398 8.86793 19.9959 7.86 18.8474C6.85206 17.6989 6.29494 16.2238 6.29199 14.6957V11.5499C6.29199 10.7145 6.62387 9.91325 7.21461 9.32251C7.80535 8.73178 8.60656 8.3999 9.44199 8.3999H11.5525H11.5504ZM30.4504 18.7676C31.3495 18.5349 32.146 18.0103 32.7146 17.2759C33.2832 16.5416 33.5918 15.6392 33.592 14.7104V11.5499C33.592 11.2714 33.4814 11.0044 33.2845 10.8074C33.0875 10.6105 32.8205 10.4999 32.542 10.4999H30.4525V18.7676H30.4504ZM11.5504 10.4999H9.44409C9.16562 10.4999 8.89854 10.6105 8.70163 10.8074C8.50472 11.0044 8.39409 11.2714 8.39409 11.5499V14.6957C8.39409 16.6487 9.73809 18.293 11.5546 18.7613V10.4999H11.5504Z" fill="#F5F5F5"/>
<path d="M11.5504 96.3999C11.5515 95.2867 11.9945 94.2195 12.782 93.4328C13.5696 92.646 14.6372 92.2041 15.7504 92.2041H26.2504C27.3636 92.2041 28.4312 92.646 29.2188 93.4328C30.0063 94.2195 30.4493 95.2867 30.4504 96.3999H32.542C33.3774 96.3999 34.1786 96.7318 34.7694 97.3225C35.3601 97.9133 35.692 98.7145 35.692 99.5499V102.71C35.6921 104.235 35.1382 105.709 34.1335 106.856C33.1288 108.003 31.7416 108.746 30.2299 108.947C29.802 110.871 28.7839 112.613 27.3179 113.93C25.8518 115.247 24.0109 116.073 22.0525 116.293V119.433H26.2588C27.3727 119.433 28.441 119.875 29.2286 120.663C30.0163 121.451 30.4588 122.519 30.4588 123.633V124.683C30.4588 124.961 30.3482 125.228 30.1513 125.425C29.9543 125.622 29.6873 125.733 29.4088 125.733H12.6088C12.3303 125.733 12.0632 125.622 11.8663 125.425C11.6694 125.228 11.5588 124.961 11.5588 124.683V123.633C11.5588 122.519 12.0013 121.451 12.7889 120.663C13.5766 119.875 14.6449 119.433 15.7588 119.433H19.9525V116.293C17.9927 116.074 16.1506 115.247 14.684 113.929C13.2173 112.61 12.1995 110.866 11.773 108.941C10.2582 108.74 8.86793 107.996 7.86 106.847C6.85206 105.699 6.29494 104.224 6.29199 102.696V99.5499C6.29199 98.7145 6.62387 97.9133 7.21461 97.3225C7.80535 96.7318 8.60656 96.3999 9.44199 96.3999H11.5525H11.5504ZM30.4504 106.768C31.3495 106.535 32.146 106.01 32.7146 105.276C33.2832 104.542 33.5918 103.639 33.592 102.71V99.5499C33.592 99.2714 33.4814 99.0044 33.2845 98.8074C33.0875 98.6105 32.8205 98.4999 32.542 98.4999H30.4525V106.768H30.4504ZM11.5504 98.4999H9.44409C9.16562 98.4999 8.89854 98.6105 8.70163 98.8074C8.50472 99.0044 8.39409 99.2714 8.39409 99.5499V102.696C8.39409 104.649 9.73809 106.293 11.5546 106.761V98.4999H11.5504Z" fill="#F5F5F5"/>
<path d="M11.5504 184.4C11.5515 183.287 11.9945 182.22 12.782 181.433C13.5696 180.646 14.6372 180.204 15.7504 180.204H26.2504C27.3636 180.204 28.4312 180.646 29.2188 181.433C30.0063 182.22 30.4493 183.287 30.4504 184.4H32.542C33.3774 184.4 34.1786 184.732 34.7694 185.323C35.3601 185.913 35.692 186.714 35.692 187.55V190.71C35.6921 192.235 35.1382 193.709 34.1335 194.856C33.1288 196.003 31.7416 196.746 30.2299 196.947C29.802 198.871 28.7839 200.613 27.3179 201.93C25.8518 203.247 24.0109 204.073 22.0525 204.293V207.433H26.2588C27.3727 207.433 28.441 207.875 29.2286 208.663C30.0163 209.451 30.4588 210.519 30.4588 211.633V212.683C30.4588 212.961 30.3482 213.228 30.1513 213.425C29.9543 213.622 29.6873 213.733 29.4088 213.733H12.6088C12.3303 213.733 12.0632 213.622 11.8663 213.425C11.6694 213.228 11.5588 212.961 11.5588 212.683V211.633C11.5588 210.519 12.0013 209.451 12.7889 208.663C13.5766 207.875 14.6449 207.433 15.7588 207.433H19.9525V204.293C17.9927 204.074 16.1506 203.247 14.684 201.929C13.2173 200.61 12.1995 198.866 11.773 196.941C10.2582 196.74 8.86793 195.996 7.86 194.847C6.85206 193.699 6.29494 192.224 6.29199 190.696V187.55C6.29199 186.714 6.62387 185.913 7.21461 185.323C7.80535 184.732 8.60656 184.4 9.44199 184.4H11.5525H11.5504ZM30.4504 194.768C31.3495 194.535 32.146 194.01 32.7146 193.276C33.2832 192.542 33.5918 191.639 33.592 190.71V187.55C33.592 187.271 33.4814 187.004 33.2845 186.807C33.0875 186.611 32.8205 186.5 32.542 186.5H30.4525V194.768H30.4504ZM11.5504 186.5H9.44409C9.16562 186.5 8.89854 186.611 8.70163 186.807C8.50472 187.004 8.39409 187.271 8.39409 187.55V190.696C8.39409 192.649 9.73809 194.293 11.5546 194.761V186.5H11.5504Z" fill="#F5F5F5"/>
</svg>
