<svg width="36" height="36" viewBox="0 0 36 36" fill="none" xmlns="http://www.w3.org/2000/svg">
<g clip-path="url(#clip0_92_1161)">
<path d="M30.8813 22.3313L34.9875 26.6063L16.9313 35.6625C16.9313 35.6625 14.5688 36.8438 13.4438 34.9875C8.94376 27.675 30.8813 22.3313 30.8813 22.3313" fill="#256382"/>
<path d="M16.425 30.3187C16.425 30.3187 12.9937 31.6125 13.6125 34.0312C14.2875 36.5625 17.0437 35.0437 17.0437 35.0437L34.2 26.6062C34.2 26.6062 33.2437 23.9062 34.9875 22.1062L16.425 30.3187" fill="#D9E3E8"/>
<path d="M19.35 5.00623L35.775 21.9375L16.3687 29.9812L3.9375 9.39373L19.35 5.00623Z" fill="#42ADE2"/>
<path d="M34.1437 23.9625L22.6687 28.9125L33.9187 23.4563L34.1437 23.9625ZM33.975 25.425L21.7687 30.7688L33.75 24.9188L33.975 25.425ZM34.0875 26.2688L18.5062 33.4125L33.8625 25.7625L34.0875 26.2688Z" fill="#94989B"/>
<path d="M13.3875 34.9312C11.475 30.7125 16.3688 29.9812 16.3688 29.9812L3.9375 9.39375C3.9375 9.39375 1.125 9.3375 1.125 12.4312C1.125 13.725 1.6875 14.6812 1.6875 14.6812L13.3875 34.9312Z" fill="#428BC1"/>
<path d="M4.89373 18.1125L0.787476 22.3875L18.8437 31.4438C18.8437 31.4438 21.2062 32.625 22.3312 30.7688C26.8312 23.4563 4.89373 18.1125 4.89373 18.1125" fill="#547725"/>
<path d="M19.2937 26.1C19.2937 26.1 22.725 27.3937 22.1062 29.8125C21.4312 32.3437 18.7312 30.825 18.7312 30.825L1.57498 22.3875C1.57498 22.3875 2.53123 19.6875 0.787476 17.8875L19.2937 26.1Z" fill="#D9E3E8"/>
<path d="M16.425 0.787476L0 17.7187L19.4062 25.7625L31.8375 5.17498L16.425 0.787476Z" fill="#83BF4F"/>
<path d="M1.79995 19.2375L13.05 24.6938L1.57495 19.7438L1.79995 19.2375ZM2.02495 20.7L13.9499 26.55L1.7437 21.2063L2.02495 20.7ZM1.91245 21.5438L17.2125 29.1938L1.6312 22.05L1.91245 21.5438Z" fill="#94989B"/>
<path d="M22.3875 30.7125C24.3 26.4937 19.4062 25.7625 19.4062 25.7625L31.8375 5.175C31.8375 5.175 34.65 5.11875 34.65 8.2125C34.65 9.50625 34.0875 10.4625 34.0875 10.4625L22.3875 30.7125Z" fill="#699635"/>
<path d="M31.8938 14.625L35.325 18.225L20.0813 25.8188C20.0813 25.8188 18.0563 26.775 17.1 25.2563C13.3875 19.125 31.8938 14.625 31.8938 14.625Z" fill="#962C2C"/>
<path d="M19.6875 21.375C19.6875 21.375 16.7625 22.4438 17.325 24.525C17.8875 26.6625 20.1938 25.3688 20.1938 25.3688L34.65 18.225C34.65 18.225 33.8625 15.975 35.325 14.4563L19.6875 21.375Z" fill="#D9E3E8"/>
<path d="M22.1625 0L36 14.2875L19.6313 21.0938L9.11255 3.7125L22.1625 0Z" fill="#ED4C5C"/>
<path d="M22.5562 3.26245L25.2563 6.2437L15.3 10.0124L12.9375 6.18745L22.5562 3.26245Z" fill="white"/>
<path d="M34.65 16.0313L24.975 20.1375L34.425 15.525L34.65 16.0313ZM34.5375 17.2688L24.1875 21.7125L34.3125 16.7625L34.5375 17.2688ZM34.65 17.9438L21.4875 23.9625L34.3688 17.4375L34.65 17.9438Z" fill="#94989B"/>
<path d="M17.1562 25.2563C15.5812 21.7125 19.6875 21.0938 19.6875 21.0938L9.11248 3.7125C9.11248 3.7125 6.69373 3.65625 6.69373 6.24375C6.69373 7.3125 7.14373 8.15625 7.14373 8.15625L17.1562 25.2563Z" fill="#C94747"/>
</g>
<defs>
<clipPath id="clip0_92_1161">
<rect width="36" height="36" fill="white"/>
</clipPath>
</defs>
</svg>
