<svg width="22" height="17" viewBox="0 0 22 17" fill="none" xmlns="http://www.w3.org/2000/svg">
<path d="M9.1154 0.483907C9.6675 0.166844 10.2931 0 10.9297 0C11.5664 0 12.192 0.166844 12.7441 0.483907L21.5546 5.54316C21.6472 5.59637 21.7241 5.67306 21.7776 5.76549C21.8311 5.85792 21.8593 5.96282 21.8593 6.06961C21.8593 6.17639 21.8311 6.28129 21.7776 6.37372C21.7241 6.46615 21.6472 6.54284 21.5546 6.59606L18.2162 8.5124V13.9627C18.2164 14.0425 18.2008 14.1215 18.1704 14.1953C18.1399 14.2691 18.0953 14.3361 18.0389 14.3926L18.0365 14.3938L18.0341 14.3975L18.0256 14.4047L17.9976 14.4315L17.9005 14.5213C17.7818 14.6255 17.6599 14.7259 17.5349 14.8225C17.0987 15.1574 16.6352 15.4552 16.1493 15.7127C14.5421 16.5652 12.7491 17.0074 10.9297 16.9999C9.1104 17.0074 7.3174 16.5652 5.71018 15.7127C5.22464 15.4551 4.76154 15.1574 4.32574 14.8225C4.16559 14.6988 4.01082 14.5684 3.86184 14.4315C3.79508 14.3726 3.7412 14.3006 3.70358 14.2199C3.66597 14.1392 3.64543 14.0517 3.64324 13.9627V8.5124L1.21441 7.11825V12.7483C1.21441 12.9093 1.15044 13.0638 1.03657 13.1776C0.922694 13.2915 0.768249 13.3555 0.607207 13.3555C0.446166 13.3555 0.29172 13.2915 0.177847 13.1776C0.0639736 13.0638 1.62447e-07 12.9093 1.62447e-07 12.7483V6.069C-7.95752e-05 5.95997 0.0291966 5.85294 0.0847547 5.75913C0.140313 5.66532 0.220103 5.5882 0.315748 5.53587L9.1154 0.483907ZM12.7441 11.6541C12.192 11.9712 11.5664 12.138 10.9297 12.138C10.2931 12.138 9.6675 11.9712 9.1154 11.6541L4.85766 9.20948V13.6919C5.29986 14.0548 5.77704 14.373 6.28217 14.6416C7.35085 15.2123 8.92352 15.7843 10.9297 15.7843C12.5493 15.7925 14.1458 15.4004 15.5773 14.6428C16.0825 14.3734 16.5597 14.0545 17.0018 13.6907V9.20948L12.7441 11.6529V11.6541ZM12.1393 1.53802C11.7712 1.32664 11.3542 1.21541 10.9297 1.21541C10.5053 1.21541 10.0882 1.32664 9.72017 1.53802L1.82648 6.069L9.72017 10.6012C10.0882 10.8126 10.5053 10.9238 10.9297 10.9238C11.3542 10.9238 11.7712 10.8126 12.1393 10.6012L20.033 6.069L12.1393 1.5368V1.53802Z" fill="#1B1A44"/>
</svg>
