<svg width="22" height="17" viewBox="0 0 22 17" fill="none" xmlns="http://www.w3.org/2000/svg">
<path d="M9.11533 0.483903C9.66743 0.166843 10.293 0 10.9297 0C11.5663 0 12.1919 0.166843 12.744 0.483903L21.5545 5.54312C21.6471 5.59633 21.724 5.67302 21.7775 5.76545C21.831 5.85788 21.8591 5.96277 21.8591 6.06956C21.8591 6.17635 21.831 6.28125 21.7775 6.37368C21.724 6.4661 21.6471 6.54279 21.5545 6.59601L18.2161 8.51234V13.9626C18.2162 14.0424 18.2006 14.1214 18.1702 14.1952C18.1398 14.269 18.0951 14.336 18.0388 14.3925L18.0364 14.3937L18.0339 14.3973L18.0254 14.4046L17.9975 14.4314L17.9003 14.5212C17.7816 14.6254 17.6597 14.7258 17.5348 14.8224C17.0986 15.1573 16.6351 15.4551 16.1492 15.7126C14.542 16.5651 12.749 17.0073 10.9297 16.9998C9.11033 17.0073 7.31735 16.5651 5.71014 15.7126C5.2246 15.455 4.76151 15.1573 4.32571 14.8224C4.16556 14.6987 4.01079 14.5683 3.86181 14.4314C3.79505 14.3725 3.74117 14.3005 3.70356 14.2198C3.66594 14.1391 3.6454 14.0516 3.64322 13.9626V8.51234L1.21441 7.1182V12.7482C1.21441 12.9092 1.15043 13.0637 1.03656 13.1775C0.922688 13.2914 0.768243 13.3554 0.607203 13.3554C0.446163 13.3554 0.291718 13.2914 0.177846 13.1775C0.0639731 13.0637 1.62446e-07 12.9092 1.62446e-07 12.7482V6.06896C-7.95746e-05 5.95993 0.0291964 5.8529 0.0847541 5.75909C0.140312 5.66528 0.220102 5.58816 0.315746 5.53583L9.11533 0.483903ZM12.744 11.654C12.1919 11.9711 11.5663 12.1379 10.9297 12.1379C10.293 12.1379 9.66743 11.9711 9.11533 11.654L4.85762 9.20941V13.6918C5.29982 14.0547 5.777 14.3729 6.28212 14.6414C7.3508 15.2122 8.92345 15.7842 10.9297 15.7842C12.5492 15.7924 14.1457 15.4003 15.5772 14.6427C16.0824 14.3733 16.5596 14.0544 17.0017 13.6906V9.20941L12.744 11.6528V11.654ZM12.1392 1.53801C11.7711 1.32663 11.3541 1.21541 10.9297 1.21541C10.5052 1.21541 10.0882 1.32663 9.7201 1.53801L1.82647 6.06896L9.7201 10.6011C10.0882 10.8125 10.5052 10.9237 10.9297 10.9237C11.3541 10.9237 11.7711 10.8125 12.1392 10.6011L20.0328 6.06896L12.1392 1.53679V1.53801Z" fill="#1B1A44"/>
</svg>
