<svg width="17" height="23" viewBox="0 0 17 23" fill="none" xmlns="http://www.w3.org/2000/svg">
<path d="M0 2.83337C0 2.08191 0.298514 1.36123 0.829874 0.829874C1.36123 0.298514 2.08191 0 2.83337 0H14.1668C14.9183 0 15.639 0.298514 16.1703 0.829874C16.7017 1.36123 17.0002 2.08191 17.0002 2.83337V18.4169C17.0002 18.7926 16.8509 19.1529 16.5853 19.4186C16.3196 19.6843 15.9592 19.8336 15.5835 19.8336H1.41668C1.41668 20.2093 1.56594 20.5696 1.83162 20.8353C2.0973 21.101 2.45764 21.2502 2.83337 21.2502H16.2919C16.4797 21.2502 16.6599 21.3249 16.7927 21.4577C16.9256 21.5906 17.0002 21.7707 17.0002 21.9586C17.0002 22.1465 16.9256 22.3266 16.7927 22.4595C16.6599 22.5923 16.4797 22.6669 16.2919 22.6669H2.83337C2.08191 22.6669 1.36123 22.3684 0.829874 21.8371C0.298514 21.3057 0 20.585 0 19.8336V2.83337ZM9.14327 4.66089C9.08641 4.53841 8.99572 4.43474 8.88189 4.3621C8.76806 4.28945 8.63584 4.25085 8.50081 4.25085C8.36577 4.25085 8.23355 4.28945 8.11973 4.3621C8.0059 4.43474 7.91521 4.53841 7.85834 4.66089L6.69383 7.16842L3.9483 7.49992C3.81416 7.51613 3.68745 7.57037 3.58313 7.65624C3.47881 7.74211 3.40122 7.85602 3.35952 7.98454C3.31782 8.11306 3.31375 8.25083 3.34779 8.38159C3.38183 8.51235 3.45255 8.63064 3.55162 8.72252L5.57748 10.6039L5.04339 13.3168C5.0174 13.4494 5.02985 13.5866 5.07926 13.7123C5.12868 13.838 5.213 13.9469 5.32229 14.0263C5.43158 14.1057 5.56128 14.1521 5.6961 14.1602C5.83092 14.1683 5.96525 14.1376 6.08324 14.0719L8.5001 12.7289L10.9155 14.0719C11.0335 14.1376 11.1679 14.1683 11.3027 14.1602C11.4375 14.1521 11.5672 14.1057 11.6765 14.0263C11.7858 13.9469 11.8701 13.838 11.9195 13.7123C11.9689 13.5866 11.9814 13.4494 11.9554 13.3168L11.4241 10.6039L13.45 8.72252C13.5491 8.63055 13.6198 8.51214 13.6538 8.38127C13.6878 8.2504 13.6836 8.11255 13.6417 7.98399C13.5998 7.85543 13.5221 7.74153 13.4175 7.65575C13.313 7.56998 13.1862 7.5159 13.0519 7.49992L10.3064 7.167L9.14327 4.65947V4.66089ZM7.81159 8.12184L8.5001 6.63999L9.18861 8.12184C9.23929 8.23116 9.31702 8.32574 9.41444 8.39663C9.51186 8.46753 9.62576 8.51241 9.74536 8.52702L11.3675 8.72252L10.1704 9.83462C10.082 9.9168 10.0161 10.0202 9.97892 10.135C9.94173 10.2498 9.93449 10.3722 9.95787 10.4905L10.2724 12.0928L8.84435 11.2995C8.73906 11.2409 8.62058 11.2102 8.5001 11.2102C8.37962 11.2102 8.26114 11.2409 8.15584 11.2995L6.72783 12.0928L7.04233 10.4905C7.06571 10.3722 7.05846 10.2498 7.02127 10.135C6.98408 10.0202 6.91819 9.9168 6.82983 9.83462L5.63415 8.72252L7.25342 8.52843C7.37302 8.51383 7.48692 8.46895 7.58434 8.39805C7.68177 8.32715 7.75949 8.23258 7.81017 8.12326L7.81159 8.12184Z" fill="#F27059"/>
</svg>
