<svg width="17" height="17" viewBox="0 0 17 17" fill="none" xmlns="http://www.w3.org/2000/svg">
<path d="M0.907915 0.155773C0.858528 0.106387 0.799898 0.0672119 0.735372 0.0404843C0.670846 0.0137566 0.601687 5.20369e-10 0.531844 0C0.462001 -5.20369e-10 0.392842 0.0137566 0.328316 0.0404843C0.26379 0.0672119 0.20516 0.106387 0.155773 0.155773C0.106387 0.20516 0.0672119 0.26379 0.0404843 0.328316C0.0137566 0.392842 -5.20369e-10 0.462001 0 0.531844C5.20369e-10 0.601687 0.0137566 0.670846 0.0404843 0.735372C0.0672119 0.799898 0.106387 0.858528 0.155773 0.907915L3.87398 4.624C2.03248 5.88005 0.750483 7.80191 0.298128 9.9846C0.283898 10.0529 0.283258 10.1233 0.296245 10.1918C0.309231 10.2604 0.33559 10.3257 0.373816 10.384C0.412042 10.4424 0.461387 10.4926 0.519033 10.5319C0.576679 10.5712 0.641497 10.5987 0.709787 10.613C0.778077 10.6272 0.848501 10.6278 0.917038 10.6149C0.985575 10.6019 1.05088 10.5755 1.10923 10.5373C1.16758 10.4991 1.21783 10.4497 1.25711 10.3921C1.29639 10.3344 1.32393 10.2696 1.33816 10.2013C1.54095 9.22023 1.93742 8.28945 2.50437 7.46348C3.07131 6.63751 3.79734 5.93294 4.63994 5.39101L6.32163 7.07165C5.88333 7.38602 5.51869 7.792 5.25298 8.2614C4.98728 8.7308 4.82689 9.25239 4.78293 9.78998C4.73897 10.3276 4.8125 10.8683 4.99842 11.3746C5.18434 11.881 5.4782 12.3408 5.8596 12.7222C6.241 13.1036 6.70082 13.3974 7.20715 13.5833C7.71348 13.7693 8.2542 13.8428 8.79179 13.7988C9.32938 13.7549 9.85097 13.5945 10.3204 13.3288C10.7898 13.0631 11.1957 12.6984 11.5101 12.2601L16.092 16.8431C16.1918 16.9428 16.327 16.9989 16.4681 16.9989C16.6091 16.9989 16.7444 16.9428 16.8442 16.8431C16.9439 16.7434 16.9999 16.6081 16.9999 16.467C16.9999 16.326 16.9439 16.1907 16.8442 16.091L0.908977 0.155773H0.907915ZM8.63117 6.37793L12.2038 9.9506C12.1679 9.01457 11.7799 8.1266 11.1175 7.46423C10.4552 6.80186 9.56721 6.41391 8.63117 6.37793ZM5.87544 3.62327L6.72851 4.47633C7.30683 4.32612 7.90192 4.25008 8.49944 4.25005C11.9053 4.25005 14.9341 6.72213 15.6597 10.2013C15.6884 10.3394 15.7708 10.4604 15.8887 10.5377C16.0067 10.615 16.1505 10.6422 16.2886 10.6135C16.4266 10.5848 16.5476 10.5024 16.6249 10.3844C16.7022 10.2665 16.7295 10.1227 16.7007 9.9846C15.8753 6.02736 12.4227 3.18771 8.49944 3.18771C7.59113 3.18771 6.70726 3.33962 5.87651 3.62327H5.87544Z" fill="#9C9C9C"/>
</svg>
