<svg width="36" height="36" viewBox="0 0 36 36" fill="none" xmlns="http://www.w3.org/2000/svg">
<path d="M17.9999 1.125C9.84365 1.125 5.3999 6.1875 5.3999 12.8812V33.75H30.5999V12.8812C30.5999 2.925 23.7937 3.09375 23.7937 3.09375C23.7937 3.09375 23.2874 1.125 17.9999 1.125Z" fill="#594640"/>
<path d="M8.60635 18.7312C8.60635 18.7312 6.69385 18.225 6.69385 15.4687C6.69385 13.275 8.1001 12.8812 8.1001 12.8812C13.2188 12.8812 22.6688 6.29999 22.6688 6.29999C22.6688 6.29999 24.7501 12.15 27.7876 12.9375C27.7876 12.9375 29.2501 13.2187 29.2501 15.525C29.2501 18.2812 27.2813 18.7875 27.2813 18.7875C27.2813 22.95 21.4876 28.0125 18.0001 28.0125C14.5126 28.0125 8.60635 22.95 8.60635 18.7312Z" fill="#FFE1BD"/>
<path d="M18 21.4875C16.2 21.4875 15.3 20.1937 16.2 20.1937H19.8C20.7 20.1937 19.8 21.4875 18 21.4875Z" fill="#E6B796"/>
<path d="M20.7001 17.6625C20.0813 17.6625 20.1376 16.875 20.1376 16.875C21.0938 11.925 26.6063 14.5688 26.6063 14.5688C27.0563 15.4125 25.5938 17.55 25.2001 17.6625C23.4001 18.1125 20.7001 17.6625 20.7001 17.6625Z" fill="#F5F5F5"/>
<path d="M23.175 17.6063C24.2624 17.6063 25.1438 16.7248 25.1438 15.6375C25.1438 14.5502 24.2624 13.6688 23.175 13.6688C22.0877 13.6688 21.2063 14.5502 21.2063 15.6375C21.2063 16.7248 22.0877 17.6063 23.175 17.6063Z" fill="#664E27"/>
<path d="M23.175 16.3125C23.5478 16.3125 23.85 16.0103 23.85 15.6375C23.85 15.2647 23.5478 14.9625 23.175 14.9625C22.8022 14.9625 22.5 15.2647 22.5 15.6375C22.5 16.0103 22.8022 16.3125 23.175 16.3125Z" fill="#2B2925"/>
<path d="M20.1375 16.875C21.0937 10.9688 25.9875 14.9063 27.9 14.0625C25.9875 15.9188 22.1062 11.925 20.1375 16.875Z" fill="#3B3226"/>
<path d="M15.2438 17.6625C15.8625 17.6625 15.8063 16.875 15.8063 16.875C14.85 11.925 9.33753 14.5688 9.33753 14.5688C8.88753 15.4125 10.35 17.55 10.7438 17.6625C12.5438 18.1125 15.2438 17.6625 15.2438 17.6625Z" fill="#F5F5F5"/>
<path d="M12.7688 17.6063C13.8561 17.6063 14.7375 16.7248 14.7375 15.6375C14.7375 14.5502 13.8561 13.6688 12.7688 13.6688C11.6815 13.6688 10.8 14.5502 10.8 15.6375C10.8 16.7248 11.6815 17.6063 12.7688 17.6063Z" fill="#664E27"/>
<path d="M15.8062 16.875C14.85 10.9688 9.9562 14.9063 8.0437 14.0625C9.9562 15.9188 13.8937 11.925 15.8062 16.875Z" fill="#3B3226"/>
<path d="M12.7688 16.3125C13.1415 16.3125 13.4437 16.0103 13.4437 15.6375C13.4437 15.2647 13.1415 14.9625 12.7688 14.9625C12.396 14.9625 12.0938 15.2647 12.0938 15.6375C12.0938 16.0103 12.396 16.3125 12.7688 16.3125Z" fill="#2B2925"/>
<path d="M29.4749 34.875C29.4749 26.4375 28.6874 26.325 17.9999 26.325C7.3124 26.325 6.5249 26.4375 6.5249 34.875H29.4749Z" fill="#B386E2"/>
<path d="M2.36239 11.3625C2.81239 11.7 10.1811 17.6625 10.1811 17.6625L8.38114 21.0938C5.96239 19.6875 4.89364 17.0438 1.34989 13.05C0.674886 12.2625 1.57489 10.7438 2.36239 11.3625ZM33.6374 11.3625C33.1874 11.7 25.8186 17.6625 25.8186 17.6625L27.6186 21.0938C30.0374 19.6313 31.1061 17.0438 34.6499 12.9938C35.3249 12.2625 34.4249 10.7438 33.6374 11.3625" fill="#F4D3AE"/>
<path d="M24.075 24.975C26.55 23.0063 28.2375 21.4875 28.2375 21.4875L26.2688 17.0438C24.6375 18.5625 21.4313 20.25 18 21.9375C14.5688 20.25 11.3625 18.6188 9.67501 17.0438L7.70626 21.4875C7.70626 21.4875 9.39376 23.0063 11.8688 24.975C6.13126 28.0125 1.68751 31.1625 5.11876 34.3125C7.20001 36.225 12.825 33.1875 18 29.5313C23.175 33.1313 28.8 36.1688 30.8813 34.3125C34.3125 31.1625 29.8688 28.0125 24.075 24.975Z" fill="#C99FF7"/>
<path d="M12.9938 32.6812L24.075 24.975L15.975 32.625L12.9938 32.6812ZM11.925 24.975L18 21.9375L11.3625 24.525L11.925 24.975Z" fill="#B386E2"/>
</svg>
