<svg width="36" height="36" viewBox="0 0 36 36" fill="none" xmlns="http://www.w3.org/2000/svg">
<path d="M36 32.625H0L3.20625 6.75H32.7937L36 32.625Z" fill="#89664C"/>
<path d="M14.7374 4.72498C11.4749 4.72498 5.3999 5.79373 3.43115 5.17498C3.43115 5.17498 3.9374 16.2562 1.18115 31.8375C5.0624 31.5562 10.2374 29.3625 14.0624 29.3625C17.9437 29.3625 17.9437 31.8375 17.9437 31.8375V7.48123C18.0562 7.48123 17.9999 4.72498 14.7374 4.72498Z" fill="#B0BDC6"/>
<path d="M14.7937 4.33125C11.5312 4.33125 6.52495 5.34375 5.0062 3.375C5.0062 3.375 5.51245 15.9188 2.13745 29.925C3.37495 31.6688 10.0125 29.3062 13.8937 29.3062C17.775 29.3062 18 31.8375 18 31.8375V7.0875C18.0562 7.0875 18.0562 4.33125 14.7937 4.33125" fill="#E1EBEF"/>
<path d="M14.1188 29.3625C10.2375 29.3625 3.4313 31.8375 1.23755 31.8375H18.0563C18.0563 31.8375 18 29.3625 14.1188 29.3625Z" fill="#94989B"/>
<path d="M6.6374 7.98752L6.69365 7.53752C7.1999 7.53752 8.15615 7.36877 9.2249 7.14377C10.6874 6.86252 12.3749 6.52502 13.7249 6.52502C15.5249 6.52502 16.0874 6.91877 16.1999 6.97502L16.0312 7.14377L15.8624 7.31252C15.8624 7.31252 15.2999 6.97502 13.7249 6.97502C12.4312 6.97502 10.7999 7.31252 9.3374 7.59377C8.2124 7.81877 7.25615 7.98752 6.6374 7.98752V7.98752ZM6.4124 10.4063L6.46865 9.90002C7.03115 9.90002 7.9874 9.73127 9.05615 9.50627C10.5749 9.22502 12.2624 8.88752 13.6124 8.88752C15.4124 8.88752 16.0312 9.28127 16.0874 9.33752L15.9749 9.56252L15.8062 9.78752C15.8062 9.78752 15.2437 9.39377 13.6124 9.39377C12.2624 9.39377 10.6312 9.73127 9.1124 10.0125C7.9874 10.2375 7.03115 10.4063 6.4124 10.4063V10.4063ZM6.1874 12.9375L6.24365 12.4313C6.80615 12.4313 7.7624 12.2063 8.8874 11.9813C10.4062 11.6438 12.1499 11.3063 13.5562 11.3063C15.4124 11.3063 16.0312 11.7563 16.0874 11.8125L15.9187 12.0375L15.7499 12.2625C15.7499 12.2625 15.1874 11.8688 13.4999 11.8688C12.1499 11.8688 10.4624 12.2063 8.94365 12.5438C7.81865 12.7688 6.80615 12.9375 6.1874 12.9375V12.9375ZM5.9624 15.5813L6.01865 15.0188C6.58115 15.0188 7.59365 14.7938 8.71865 14.5688C10.2937 14.2313 12.0374 13.8938 13.4999 13.8938C15.4124 13.8938 16.0312 14.3438 16.0874 14.4L15.8624 14.625L15.7499 14.85C15.7499 14.85 15.1874 14.4563 13.4437 14.4563C12.0374 14.4563 10.2937 14.7938 8.7749 15.1313C7.59365 15.3563 6.58115 15.5813 5.9624 15.5813V15.5813ZM5.68115 18.3375L5.7374 17.775C6.2999 17.775 7.3124 17.55 8.49365 17.325C10.0687 16.9875 11.8687 16.5938 13.3312 16.5938C15.2437 16.5938 15.9187 17.0438 15.9749 17.1L15.8062 17.325L15.6374 17.55C15.6374 17.55 15.0749 17.1563 13.2749 17.1563C11.8687 17.1563 10.0687 17.55 8.49365 17.8875C7.36865 18.1125 6.2999 18.3375 5.68115 18.3375V18.3375ZM5.3999 21.2063L5.45615 20.6438C6.01865 20.6438 7.0874 20.4188 8.26865 20.1375C9.8999 19.8 11.7562 19.4063 13.2187 19.4063C15.1874 19.4063 15.8624 19.9125 15.9187 19.9688L15.7499 20.1938L15.5812 20.4188C15.5812 20.4188 14.9624 19.9688 13.1624 19.9688C11.6999 19.9688 9.8999 20.3625 8.26865 20.7C7.14365 20.9813 6.0749 21.2063 5.3999 21.2063V21.2063ZM5.11865 24.1875L5.1749 23.5688C5.79365 23.5688 6.80615 23.3438 8.04365 23.0625C9.73115 22.6688 11.5874 22.275 13.1062 22.275C15.1312 22.275 15.8062 22.7813 15.8624 22.8375L15.7499 23.1188L15.5812 23.3438C15.5812 23.3438 14.9624 22.8938 13.1062 22.8938C11.6437 22.8938 9.7874 23.2875 8.0999 23.6813C6.91865 23.9625 5.79365 24.1875 5.11865 24.1875V24.1875ZM4.8374 27.3375L4.89365 26.7188C5.5124 26.7188 6.58115 26.4938 7.81865 26.2125C9.50615 25.8188 11.4749 25.3688 12.9937 25.3688C15.0749 25.3688 15.7499 25.9313 15.8062 25.9875L15.6374 26.2125L15.5249 26.4375C15.5249 26.4375 14.9062 25.9313 12.9937 25.9313C11.4749 25.9313 9.5624 26.3813 7.8749 26.775C6.6374 27.0563 5.5124 27.3375 4.8374 27.3375Z" fill="#7D8B91"/>
<path d="M21.2625 4.72498C24.525 4.72498 30.6 5.79373 32.5687 5.17498C32.5687 5.17498 32.0625 16.2562 34.8187 31.8375C30.9375 31.5562 25.7625 29.3625 21.9375 29.3625C18.0562 29.3625 18.0562 31.8375 18.0562 31.8375V7.48123C18 7.48123 18 4.72498 21.2625 4.72498" fill="#B0BDC6"/>
<path d="M21.2063 4.33125C24.4688 4.33125 29.475 5.34375 30.9937 3.375C30.9937 3.375 30.4875 15.9188 33.8625 29.925C32.625 31.6688 25.9875 29.3062 22.1062 29.3062C18.225 29.3062 18 31.8375 18 31.8375V7.0875C18 7.0875 18 4.33125 21.2063 4.33125" fill="#D9E3E8"/>
<path d="M21.8813 29.3625C25.7625 29.3625 32.5687 31.8375 34.7625 31.8375H18C18 31.8375 18 29.3625 21.8813 29.3625Z" fill="#94989B"/>
<path d="M29.3625 7.98752L29.3063 7.53752C28.8 7.53752 27.8438 7.36877 26.775 7.14377C25.3125 6.86252 23.625 6.52502 22.275 6.52502C20.475 6.52502 19.9125 6.91877 19.8 6.97502L19.9688 7.14377L20.1375 7.31252C20.1375 7.31252 20.7 6.97502 22.275 6.97502C23.5688 6.97502 25.2 7.31252 26.6625 7.59377C27.8438 7.81877 28.8 7.98752 29.3625 7.98752V7.98752ZM29.5875 10.4063L29.5313 9.90002C28.9688 9.90002 28.0125 9.73127 26.9438 9.50627C25.425 9.22502 23.7375 8.88752 22.3875 8.88752C20.5875 8.88752 19.9688 9.28127 19.9125 9.33752L20.0813 9.50627L20.25 9.73127C20.25 9.73127 20.8125 9.33752 22.4438 9.33752C23.7938 9.33752 25.425 9.67502 26.9438 9.95627C28.0125 10.2375 28.9688 10.4063 29.5875 10.4063V10.4063ZM29.8125 12.9375L29.7563 12.4313C29.1938 12.4313 28.2375 12.2063 27.1125 11.9813C25.5938 11.6438 23.85 11.3063 22.4438 11.3063C20.5875 11.3063 19.9688 11.7563 19.9125 11.8125L20.0813 12.0375L20.25 12.2625C20.25 12.2625 20.8125 11.8688 22.5 11.8688C23.85 11.8688 25.5375 12.2063 27.0563 12.5438C28.2375 12.7688 29.1938 12.9375 29.8125 12.9375V12.9375ZM30.0938 15.5813L30.0375 15.0188C29.475 15.0188 28.4625 14.7938 27.3375 14.5688C25.7625 14.2313 24.0188 13.8938 22.5563 13.8938C20.6438 13.8938 20.025 14.3438 19.9688 14.4L20.1375 14.625L20.3063 14.85C20.3063 14.85 20.8688 14.4563 22.6125 14.4563C24.0188 14.4563 25.7625 14.7938 27.2813 15.1313C28.4063 15.3563 29.475 15.5813 30.0938 15.5813V15.5813ZM30.3188 18.3375L30.2625 17.775C29.7 17.775 28.6875 17.55 27.5063 17.325C25.9313 16.9875 24.1313 16.5938 22.6688 16.5938C20.7563 16.5938 20.0813 17.0438 20.025 17.1L20.1938 17.325L20.3625 17.55C20.3625 17.55 20.925 17.1563 22.725 17.1563C24.1313 17.1563 25.9313 17.55 27.5063 17.8875C28.6313 18.1125 29.7 18.3375 30.3188 18.3375V18.3375ZM30.6 21.2063L30.5438 20.6438C29.9813 20.6438 28.9125 20.4188 27.7313 20.1375C26.1 19.8 24.2438 19.4063 22.7813 19.4063C20.8125 19.4063 20.1375 19.9125 20.0813 19.9688L20.25 20.1938L20.4188 20.4188C20.4188 20.4188 21.0375 19.9688 22.8375 19.9688C24.3 19.9688 26.1 20.3625 27.7313 20.7C28.8563 20.9813 29.925 21.2063 30.6 21.2063V21.2063ZM30.8813 24.1875L30.825 23.5688C30.2063 23.5688 29.1938 23.3438 27.9563 23.0625C26.2688 22.6688 24.4125 22.275 22.8938 22.275C20.8688 22.275 20.1938 22.7813 20.1375 22.8375L20.3063 23.0625L20.475 23.2875C20.475 23.2875 21.0938 22.8375 22.95 22.8375C24.4125 22.8375 26.2688 23.2313 27.9563 23.625C29.1375 23.9625 30.2063 24.1875 30.8813 24.1875V24.1875ZM31.1625 27.3375L31.1063 26.7188C30.4875 26.7188 29.4188 26.4938 28.1813 26.2125C26.4938 25.8188 24.525 25.3688 23.0063 25.3688C20.925 25.3688 20.25 25.9313 20.1938 25.9875L20.3625 26.2125L20.5313 26.4938C20.5313 26.4938 21.15 25.9875 23.0625 25.9875C24.5813 25.9875 26.4938 26.4375 28.1813 26.8313C29.3625 27.0563 30.4875 27.3375 31.1625 27.3375" fill="#7D8B91"/>
</svg>
