<svg width="34" height="34" viewBox="0 0 34 34" fill="none" xmlns="http://www.w3.org/2000/svg">
<path d="M33.1547 11.7345C34.3369 15.3663 34.2612 19.2904 32.9399 22.8739C31.6186 26.4575 29.1286 29.4914 25.8718 31.4865C22.6149 33.4815 18.7809 34.3213 14.9882 33.8704C11.1956 33.4195 7.6654 31.7041 4.96708 29.0011C2.26876 26.298 0.559632 22.7648 0.115381 18.9714C-0.328871 15.1779 0.517653 11.3454 2.51841 8.09205C4.51917 4.83867 7.5575 2.35409 11.1433 1.03908C14.7292 -0.275941 18.6535 -0.344727 22.2832 0.843814L20.0566 3.06826C19.9334 3.18936 19.8229 3.32321 19.7209 3.46131C16.8147 2.87471 13.7968 3.23902 11.1136 4.50034C8.43041 5.76166 6.2244 7.85303 4.82181 10.4652C3.41923 13.0773 2.89454 16.0714 3.32535 19.0048C3.75617 21.9382 5.1196 24.6551 7.21402 26.7536C9.30843 28.8522 12.0226 30.2209 14.9552 30.6575C17.8877 31.0941 20.8829 30.5753 23.4978 29.1778C26.1126 27.7803 28.2083 25.5784 29.4749 22.8977C30.7415 20.217 31.1117 17.1999 30.5308 14.2925C30.6762 14.1894 30.8127 14.0742 30.9388 13.9483L33.1526 11.7345H33.1547ZM27.4077 14.881C27.8638 17.1185 27.5868 19.4435 26.6177 21.5112C25.6486 23.5789 24.0389 25.2793 22.0275 26.3602C20.016 27.4412 17.7097 27.8452 15.4505 27.5124C13.1914 27.1796 11.0996 26.1276 9.48531 24.5125C7.87101 22.8974 6.82014 20.8051 6.48848 18.5458C6.15682 16.2864 6.56203 13.9804 7.64404 11.9694C8.72605 9.9585 10.4272 8.34976 12.4954 7.3817C14.5636 6.41365 16.8887 6.13781 19.126 6.59509V9.87971C17.5404 9.40634 15.8421 9.47543 14.3001 10.076C12.7581 10.6766 11.4605 11.7744 10.6128 13.1956C9.76501 14.6168 9.41553 16.2801 9.61965 17.9223C9.82377 19.5645 10.5698 21.0917 11.7397 22.262C12.9096 23.4324 14.4365 24.1791 16.0786 24.384C17.7207 24.5888 19.3842 24.24 20.8057 23.3928C22.2272 22.5457 23.3256 21.2486 23.9268 19.7068C24.5281 18.1651 24.5979 16.4669 24.1252 14.881H27.4077ZM16.9972 20.1925C17.4859 20.1927 17.9682 20.0806 18.4066 19.8647C18.8451 19.6488 19.2281 19.3349 19.5258 18.9474C19.8236 18.5598 20.0283 18.109 20.124 17.6297C20.2197 17.1504 20.2039 16.6556 20.0778 16.1834L23.439 12.8201L23.5027 12.7564H28.6867C28.8263 12.7567 28.9646 12.7294 29.0936 12.6762C29.2227 12.6229 29.34 12.5448 29.4388 12.4462L33.688 8.19703C33.8369 8.04846 33.9384 7.859 33.9796 7.65269C34.0207 7.44637 33.9997 7.23248 33.9191 7.03814C33.8385 6.8438 33.7021 6.67775 33.5271 6.56105C33.352 6.44435 33.1463 6.38225 32.9359 6.38263H27.6244V1.07115C27.6244 0.861204 27.5621 0.655983 27.4455 0.481396C27.3289 0.306808 27.1632 0.170684 26.9693 0.0902117C26.7754 0.00973936 26.562 -0.0114726 26.356 0.0292544C26.1501 0.0699813 25.9608 0.170821 25.8121 0.31904L21.5629 4.56822C21.464 4.66688 21.3854 4.7841 21.3318 4.91316C21.2783 5.04222 21.2507 5.18059 21.2506 5.32033V10.5043C21.2288 10.525 21.2075 10.5462 21.1869 10.5681L17.8258 13.9249C17.3532 13.7981 16.8578 13.7818 16.3778 13.8771C15.8979 13.9725 15.4464 14.177 15.0582 14.4748C14.67 14.7726 14.3555 15.1558 14.1391 15.5947C13.9227 16.0335 13.8102 16.5163 13.8103 17.0056C13.8103 17.8508 14.1461 18.6614 14.7437 19.2591C15.3414 19.8567 16.152 20.1925 16.9972 20.1925Z" fill="#9C9C9C"/>
</svg>
