<svg width="18" height="26" viewBox="0 0 18 26" fill="none" xmlns="http://www.w3.org/2000/svg">
<path d="M1.62499 13C1.62499 12.7845 1.53939 12.5778 1.38702 12.4254C1.23465 12.2731 1.02798 12.1875 0.812497 12.1875C0.597009 12.1875 0.390348 12.2731 0.237975 12.4254C0.0856024 12.5778 8.8697e-08 12.7845 8.8697e-08 13C-0.000313893 15.2299 0.832987 17.3794 2.33629 19.0264C3.83958 20.6734 5.90428 21.6989 8.12497 21.9017V25.1874C8.12497 25.4029 8.21057 25.6096 8.36294 25.7619C8.51532 25.9143 8.72198 25.9999 8.93747 25.9999C9.15295 25.9999 9.35962 25.9143 9.51199 25.7619C9.66436 25.6096 9.74996 25.4029 9.74996 25.1874V21.9017C11.9707 21.6989 14.0353 20.6734 15.5386 19.0264C17.0419 17.3794 17.8752 15.2299 17.8749 13C17.8749 12.7845 17.7893 12.5778 17.637 12.4254C17.4846 12.2731 17.2779 12.1875 17.0624 12.1875C16.8469 12.1875 16.6403 12.2731 16.4879 12.4254C16.3355 12.5778 16.2499 12.7845 16.2499 13C16.2499 13.9602 16.0608 14.9111 15.6933 15.7983C15.3258 16.6855 14.7872 17.4916 14.1082 18.1706C13.4291 18.8497 12.623 19.3883 11.7358 19.7558C10.8486 20.1233 9.89775 20.3124 8.93747 20.3124C7.97718 20.3124 7.02629 20.1233 6.1391 19.7558C5.25191 19.3883 4.44579 18.8497 3.76677 18.1706C3.08774 17.4916 2.54911 16.6855 2.18162 15.7983C1.81414 14.9111 1.62499 13.9602 1.62499 13V13ZM13.8124 13C13.8124 14.2929 13.2988 15.5328 12.3846 16.4471C11.4704 17.3613 10.2304 17.8749 8.93747 17.8749C7.64454 17.8749 6.40457 17.3613 5.49033 16.4471C4.5761 15.5328 4.06248 14.2929 4.06248 13V4.87498C4.06248 3.58206 4.5761 2.34209 5.49033 1.42785C6.40457 0.513613 7.64454 0 8.93747 0C10.2304 0 11.4704 0.513613 12.3846 1.42785C13.2988 2.34209 13.8124 3.58206 13.8124 4.87498V13Z" fill="#1B1A44"/>
</svg>
