<svg width="36" height="36" viewBox="0 0 36 36" fill="none" xmlns="http://www.w3.org/2000/svg">
<path d="M35.235 18.405C35.235 17.22 35.13 16.095 34.95 15H18V21.765H27.705C27.27 23.985 25.995 25.86 24.105 27.135V31.635H29.895C33.285 28.5 35.235 23.88 35.235 18.405Z" fill="#4285F4"/>
<path d="M18.0001 36C22.8601 36 26.9251 34.38 29.8951 31.635L24.1051 27.135C22.4851 28.215 20.4301 28.875 18.0001 28.875C13.3051 28.875 9.33006 25.71 7.90506 21.435H1.93506V26.07C4.89006 31.95 10.9651 36 18.0001 36Z" fill="#34A853"/>
<path d="M7.905 21.435C7.53 20.355 7.335 19.2 7.335 18C7.335 16.8 7.545 15.645 7.905 14.565V9.92999H1.935C0.704999 12.36 0 15.09 0 18C0 20.91 0.704999 23.64 1.935 26.07L7.905 21.435Z" fill="#FBBC05"/>
<path d="M18.0001 7.125C20.6551 7.125 23.0251 8.04 24.9001 9.825L30.0301 4.695C26.9251 1.785 22.8601 0 18.0001 0C10.9651 0 4.89006 4.05 1.93506 9.93L7.90506 14.565C9.33006 10.29 13.3051 7.125 18.0001 7.125Z" fill="#EA4335"/>
</svg>
