<svg width="36" height="36" viewBox="0 0 36 36" fill="none" xmlns="http://www.w3.org/2000/svg">
<path d="M6.13121 27.3938C8.38121 25.1438 8.60621 24.5813 10.0125 25.9875C11.4187 27.3938 10.8562 27.5625 8.60621 29.8688C6.91871 31.5563 4.78121 31.2188 4.78121 31.2188C4.78121 31.2188 4.44371 29.0813 6.13121 27.3938Z" fill="#FF9D27"/>
<path d="M10.4062 29.7C11.3062 27.3375 11.5874 27.0563 10.2937 26.325C8.99994 25.5938 8.99994 26.1 8.15619 28.4625C7.48119 30.2063 8.26869 31.7813 8.26869 31.7813C8.26869 31.7813 9.78744 31.5 10.4062 29.7" fill="#FF9D27"/>
<path d="M9.11252 27.5062C9.61877 26.2125 9.61877 25.9312 10.2938 26.325C11.025 26.7187 10.8563 26.8875 10.35 28.1812C10.0125 29.1375 9.16877 29.3625 9.16877 29.3625C9.16877 29.3625 8.77502 28.5187 9.11252 27.5062Z" fill="#FDF516"/>
<path d="M9.61873 25.7063C8.88748 24.4125 8.60623 24.6938 6.24373 25.5938C4.49998 26.2688 4.16248 27.7313 4.16248 27.7313C4.16248 27.7313 5.73748 28.5188 7.48123 27.8438C9.84373 26.9438 10.35 26.9438 9.61873 25.7063Z" fill="#FF9D27"/>
<path d="M8.43755 26.8875C9.7313 26.3813 10.0125 26.3813 9.6188 25.7063C9.22505 24.975 9.0563 25.1438 7.76255 25.65C6.8063 25.9875 6.5813 26.8313 6.5813 26.8313C6.5813 26.8313 7.4813 27.225 8.43755 26.8875Z" fill="#FDF516"/>
<path d="M7.81886 26.775C9.05636 25.5375 9.16886 25.2 9.95636 25.9875C10.7439 26.775 10.4064 26.8875 9.16886 28.125C8.21261 29.0812 7.03136 28.8562 7.03136 28.8562C7.03136 28.8562 6.91886 27.7312 7.81886 26.775" fill="#FDF516"/>
<path d="M10.4063 21.3749C6.91875 15.5249 1.125 17.9437 1.125 17.9437C1.125 17.9437 9.39375 9.67494 14.9625 15.2437L10.4063 21.3749Z" fill="#3BAACF"/>
<path d="M13.1062 17.0437L14.9062 15.2437C9.39375 9.67494 1.125 17.9437 1.125 17.9437C1.125 17.9437 8.38125 12.7687 13.1062 17.0437" fill="#428BC1"/>
<path d="M14.625 25.5937C20.475 29.0812 18.0562 34.875 18.0562 34.875C18.0562 34.875 26.325 26.6062 20.7563 21.0375L14.625 25.5937Z" fill="#3BAACF"/>
<path d="M18.9563 22.8938L20.7563 21.0938C26.325 26.6625 18.0563 34.9312 18.0563 34.9312C18.0563 34.9312 23.2313 27.6188 18.9563 22.8938" fill="#428BC1"/>
<path d="M27.45 17.3812C20.8688 23.9062 13.6125 27.4499 11.0813 24.9187C8.55 22.3874 12.0937 15.1312 18.6187 8.54995C26.2687 0.899948 34.7625 1.23745 34.7625 1.23745C34.7625 1.23745 35.0437 9.7312 27.45 17.3812" fill="#C5D0D8"/>
<path d="M25.7626 15.525C19.2376 22.05 12.7126 26.325 11.1938 24.8063C9.67506 23.2875 13.9501 16.7625 20.4751 10.2375C28.1251 2.5875 34.8751 1.125 34.8751 1.125C34.8751 1.125 33.4126 7.875 25.7626 15.525Z" fill="#DAE3EA"/>
<path d="M13.6687 26.7187C13.3875 27 12.9375 27 12.6562 26.7187L9.28125 23.3437C9 23.0625 9 22.5562 9.28125 22.275L10.2937 21.2625L14.6813 25.65L13.6687 26.7187Z" fill="#C94747"/>
<path d="M12.7125 25.7063C12.4313 25.9875 12.0938 26.1 11.925 25.9312L10.0125 24.0188C9.84376 23.85 9.95626 23.5125 10.2375 23.2312L11.25 22.2188L13.725 24.6938L12.7125 25.7063" fill="#F15744"/>
<path d="M11.7563 27.1125C11.5875 27.2812 11.1938 27.2812 11.025 27.1125L8.83126 24.9187C8.66251 24.75 8.71876 24.4125 8.88751 24.2437L9.56251 23.5687L12.4313 26.4375L11.7563 27.1125" fill="#3E4347"/>
<path d="M11.3063 26.6625C11.1375 26.8313 10.8 26.8875 10.6875 26.775L9.1688 25.2563C9.0563 25.1438 9.11255 24.8625 9.33755 24.6938L10.0125 24.0188L11.9813 25.9875L11.3063 26.6625Z" fill="#62727A"/>
<path d="M34.7625 1.23748C34.7625 1.23748 31.725 1.12498 27.6188 2.69998L33.3 8.38123C34.875 4.27498 34.7625 1.23748 34.7625 1.23748Z" fill="#C94747"/>
<path d="M34.7625 1.23755C34.7625 1.23755 32.3438 1.7438 28.6875 3.82505L32.175 7.31255C34.2563 3.6563 34.7625 1.23755 34.7625 1.23755" fill="#F15744"/>
<path d="M24.4688 14.3438C26.0221 14.3438 27.2812 13.0846 27.2812 11.5312C27.2812 9.97795 26.0221 8.71875 24.4688 8.71875C22.9154 8.71875 21.6562 9.97795 21.6562 11.5312C21.6562 13.0846 22.9154 14.3438 24.4688 14.3438Z" fill="#EDF4F9"/>
<path d="M24.4688 13.3875C25.494 13.3875 26.325 12.5565 26.325 11.5313C26.325 10.5061 25.494 9.67505 24.4688 9.67505C23.4436 9.67505 22.6125 10.5061 22.6125 11.5313C22.6125 12.5565 23.4436 13.3875 24.4688 13.3875Z" fill="#3BAACF"/>
<path d="M18.8438 19.9688C20.3971 19.9688 21.6562 18.7096 21.6562 17.1562C21.6562 15.6029 20.3971 14.3438 18.8438 14.3438C17.2904 14.3438 16.0312 15.6029 16.0312 17.1562C16.0312 18.7096 17.2904 19.9688 18.8438 19.9688Z" fill="#EDF4F9"/>
<path d="M18.8438 19.0125C19.869 19.0125 20.7 18.1815 20.7 17.1563C20.7 16.1311 19.869 15.3 18.8438 15.3C17.8186 15.3 16.9875 16.1311 16.9875 17.1563C16.9875 18.1815 17.8186 19.0125 18.8438 19.0125Z" fill="#3BAACF"/>
<path d="M27.5063 3.88127C27.3375 4.05002 27 4.05002 26.8313 3.88127C26.6625 3.71252 26.6625 3.37502 26.8313 3.20627C27 3.03752 27.3375 3.03752 27.5063 3.20627C27.675 3.37502 27.675 3.71252 27.5063 3.88127Z" fill="white"/>
<path d="M28.4626 5.28757C28.7111 5.28757 28.9126 5.0861 28.9126 4.83757C28.9126 4.58905 28.7111 4.38757 28.4626 4.38757C28.214 4.38757 28.0126 4.58905 28.0126 4.83757C28.0126 5.0861 28.214 5.28757 28.4626 5.28757Z" fill="white"/>
<path d="M29.8125 6.63755C30.0611 6.63755 30.2625 6.43608 30.2625 6.18755C30.2625 5.93902 30.0611 5.73755 29.8125 5.73755C29.564 5.73755 29.3625 5.93902 29.3625 6.18755C29.3625 6.43608 29.564 6.63755 29.8125 6.63755Z" fill="white"/>
<path d="M31.1062 7.98752C31.3548 7.98752 31.5562 7.78605 31.5562 7.53752C31.5562 7.289 31.3548 7.08752 31.1062 7.08752C30.8577 7.08752 30.6562 7.289 30.6562 7.53752C30.6562 7.78605 30.8577 7.98752 31.1062 7.98752Z" fill="white"/>
<path d="M32.4562 9.28123C32.7048 9.28123 32.9062 9.07975 32.9062 8.83123C32.9062 8.5827 32.7048 8.38123 32.4562 8.38123C32.2077 8.38123 32.0062 8.5827 32.0062 8.83123C32.0062 9.07975 32.2077 9.28123 32.4562 9.28123Z" fill="white"/>
</svg>
