<svg width="21" height="24" viewBox="0 0 21 24" fill="none" xmlns="http://www.w3.org/2000/svg">
<path d="M2.08167 12.5003L10.8355 3.74646C11.2571 3.32502 11.7575 2.99073 12.3083 2.76269C12.859 2.53465 13.4493 2.41731 14.0454 2.41739C14.6414 2.41747 15.2317 2.53495 15.7824 2.76314C16.3331 2.99132 16.8334 3.32574 17.2548 3.74729C17.6763 4.16884 18.0106 4.66928 18.2386 5.22002C18.4667 5.77077 18.584 6.36103 18.5839 6.95712C18.5838 7.55321 18.4664 8.14345 18.2382 8.69414C18.01 9.24482 17.6756 9.74517 17.254 10.1666L6.75072 20.6699C6.36356 21.0571 5.83845 21.2746 5.29092 21.2746C4.74339 21.2746 4.21828 21.0571 3.83112 20.6699C3.44395 20.2828 3.22645 19.7576 3.22645 19.2101C3.22645 18.6626 3.44395 18.1375 3.83112 17.7503L13.1676 8.41387C13.3862 8.17922 13.5053 7.86886 13.4996 7.54818C13.4939 7.2275 13.364 6.92154 13.1372 6.69475C12.9104 6.46796 12.6045 6.33805 12.2838 6.33239C11.9631 6.32673 11.6528 6.44577 11.4181 6.66441L2.08167 16.0009C1.2303 16.8522 0.75201 18.0069 0.75201 19.2109C0.75201 20.415 1.2303 21.5697 2.08167 22.421C2.93303 23.2724 4.08773 23.7507 5.29174 23.7507C6.49575 23.7507 7.65045 23.2724 8.50182 22.421L19.0035 11.9161C20.2936 10.5955 21.0111 8.81959 21.0004 6.97346C20.9896 5.12733 20.2515 3.35987 18.946 2.05444C17.6406 0.749011 15.8732 0.0108699 14.027 0.000119093C12.1809 -0.0106317 10.405 0.706874 9.08442 1.99701L0.332217 10.7492C0.113568 10.9839 -0.00546516 11.2942 0.000192848 11.6149C0.00585086 11.9356 0.135759 12.2415 0.362548 12.4683C0.589338 12.6951 0.895303 12.825 1.21598 12.8307C1.53666 12.8363 1.84702 12.7173 2.08167 12.4987V12.5003Z" fill="#1B1A44"/>
</svg>
