<svg width="30" height="30" viewBox="0 0 30 30" fill="none" xmlns="http://www.w3.org/2000/svg">
<path d="M29.9996 28.9282C29.9996 29.2123 29.8867 29.4849 29.6858 29.6858C29.4849 29.8867 29.2123 29.9996 28.9282 29.9996H3.21424C2.36177 29.9996 1.54422 29.661 0.94143 29.0582C0.338643 28.4554 0 27.6378 0 26.7854V1.07141C0 0.787258 0.112881 0.514739 0.31381 0.31381C0.514739 0.112881 0.787258 0 1.07141 0C1.35557 0 1.62809 0.112881 1.82902 0.31381C2.02995 0.514739 2.14283 0.787258 2.14283 1.07141V26.7854C2.14283 27.0695 2.25571 27.342 2.45664 27.543C2.65757 27.7439 2.93009 27.8568 3.21424 27.8568H28.9282C29.2123 27.8568 29.4849 27.9697 29.6858 28.1706C29.8867 28.3715 29.9996 28.644 29.9996 28.9282ZM19.2855 5.35707C19.2855 5.07292 19.3983 4.8004 19.5993 4.59947C19.8002 4.39854 20.0727 4.28566 20.3569 4.28566H28.9282C29.2123 4.28566 29.4849 4.39854 29.6858 4.59947C29.8867 4.8004 29.9996 5.07292 29.9996 5.35707V13.9284C29.9996 14.2125 29.8867 14.4851 29.6858 14.686C29.4849 14.8869 29.2123 14.9998 28.9282 14.9998C28.644 14.9998 28.3715 14.8869 28.1706 14.686C27.9697 14.4851 27.8568 14.2125 27.8568 13.9284V7.94347L17.9012 17.9012C17.8017 18.001 17.6834 18.0801 17.5533 18.1341C17.4231 18.1882 17.2836 18.216 17.1426 18.216C17.0017 18.216 16.8622 18.1882 16.732 18.1341C16.6018 18.0801 16.4836 18.001 16.3841 17.9012L12.857 14.372L6.11563 21.1154C5.91445 21.3166 5.64159 21.4296 5.35707 21.4296C5.07256 21.4296 4.79969 21.3166 4.59851 21.1154C4.39733 20.9143 4.2843 20.6414 4.2843 20.3569C4.2843 20.0724 4.39733 19.7995 4.59851 19.5983L12.0984 12.0984C12.1979 11.9986 12.3162 11.9195 12.4463 11.8655C12.5765 11.8114 12.716 11.7836 12.857 11.7836C12.9979 11.7836 13.1374 11.8114 13.2676 11.8655C13.3978 11.9195 13.516 11.9986 13.6155 12.0984L17.1426 15.6277L26.3418 6.42849H20.3569C20.0727 6.42849 19.8002 6.31561 19.5993 6.11468C19.3983 5.91375 19.2855 5.64123 19.2855 5.35707Z" fill="#F27059"/>
</svg>
