<svg width="36" height="36" viewBox="0 0 36 36" fill="none" xmlns="http://www.w3.org/2000/svg">
<g clip-path="url(#clip0_92_1258)">
<path d="M21.9375 21.375L30.2625 23.6812H23.9062L15.1875 21.375H21.9375Z" fill="#C94747"/>
<path d="M2.8125 12.375H15.1875V33.75H2.8125V12.375Z" fill="#F9F3D9"/>
<path d="M15.1875 12.375H21.9375V21.375H15.1875V12.375Z" fill="#DBB471"/>
<path d="M11.8124 4.5L0.618652 12.375H15.1874L11.8124 4.5Z" fill="#ED4C5C"/>
<path d="M16.3125 5.625H18V10.125H16.3125V5.625Z" fill="#D0D0D0"/>
<path d="M18 5.625H19.125V10.6875H18V5.625Z" fill="#94989B"/>
<path d="M11.8125 4.5L24.1875 12.375H15.1875L11.8125 4.5Z" fill="#C94747"/>
<path d="M15.75 4.5H18.5625V5.625H15.75V4.5Z" fill="#D0D0D0"/>
<path d="M18.5625 4.5H19.6875V5.625H18.5625V4.5Z" fill="#94989B"/>
<path d="M7.19995 15.6375H10.8V19.2375H7.19995V15.6375Z" fill="#D6EEF0"/>
<path d="M6.75 15.1875V19.6875H11.25V15.1875H6.75ZM10.8 15.6375V17.2125H9.225V15.6375H10.8ZM8.775 15.6375V17.2125H7.2V15.6375H8.775V15.6375ZM7.2 19.2375V17.6625H8.775V19.2375H7.2ZM9.225 19.2375V17.6625H10.8V19.2375H9.225Z" fill="#89664C"/>
<path d="M17.2124 15.4125H19.9124V19.4625H17.2124V15.4125Z" fill="#D6EEF0"/>
<path d="M16.9875 15.1875V19.6875H20.1375V15.1875H16.9875V15.1875ZM17.4375 15.6375H18.3375V17.2125H17.4375V15.6375V15.6375ZM17.4375 19.2375V17.6625H18.3375V19.2375H17.4375ZM19.6875 19.2375H18.7875V17.6625H19.6875V19.2375ZM19.6875 17.2125H18.7875V15.6375H19.6875V17.2125ZM7.7063 27.6187H11.1938V33.75H7.7063V27.6187ZM10.8 26.7188H11.7V27.6187H10.8V26.7188Z" fill="#89664C"/>
<path d="M6.80615 27.6188H7.70615V33.75H6.80615V27.6188Z" fill="#594640"/>
<path d="M6.4126 26.7188H10.8001V27.6187H6.4126V26.7188Z" fill="#DBB471"/>
<path d="M10.4625 30.6C10.6489 30.6 10.8 30.4489 10.8 30.2625C10.8 30.0761 10.6489 29.925 10.4625 29.925C10.2761 29.925 10.125 30.0761 10.125 30.2625C10.125 30.4489 10.2761 30.6 10.4625 30.6Z" fill="#F9F3D9"/>
<path d="M0.0561523 33.75H29.3062V36H0.0561523V33.75Z" fill="#83BF4F"/>
<path d="M22.4438 23.6813H27.6751V33.75H22.4438V23.6813Z" fill="#DBB471"/>
<path d="M15.1875 23.6813H22.4438V33.75H15.1875V23.6813Z" fill="#F9F3D9"/>
<path d="M15.1875 21.375H2.8125L0 23.6812H23.9062L15.1875 21.375Z" fill="#ED4C5C"/>
<path d="M15.9187 26.8875H19.5187V30.4875H15.9187V26.8875Z" fill="#D6EEF0"/>
<path d="M15.4688 26.4375V30.9375H19.9688V26.4375H15.4688ZM19.5188 26.8875V28.4625H17.9437V26.8875H19.5188ZM17.4938 26.8875V28.4625H15.9187V26.8875H17.4938ZM15.9187 30.4875V28.9125H17.4938V30.4875H15.9187ZM17.9437 30.4875V28.9125H19.5188V30.4875H17.9437Z" fill="#89664C"/>
<path d="M23.6812 26.6625H26.3812V30.7125H23.6812V26.6625Z" fill="#D6EEF0"/>
<path d="M23.4563 26.4375V30.9375H26.6063V26.4375H23.4563ZM23.9063 26.8875H24.8063V28.4625H23.9063V26.8875ZM23.9063 30.4875V28.9125H24.8063V30.4875H23.9063ZM26.1563 30.4875H25.2563V28.9125H26.1563V30.4875ZM26.1563 28.4625H25.2563V26.8875H26.1563V28.4625Z" fill="#89664C"/>
<path d="M29.1938 33.75H35.9438V36H29.1938V33.75Z" fill="#699635"/>
<path d="M29.3625 19.125H31.6125V33.75H29.3625V19.125Z" fill="#D3976E"/>
<path d="M31.6126 19.125H30.7688V19.4062C30.7688 20.7 30.3188 20.7 30.3188 21.9937C30.3188 23.2875 30.7688 23.2875 30.7688 24.525C30.7688 25.8187 30.3188 25.8188 30.3188 27.1125C30.3188 28.4063 30.7688 28.4063 30.7688 29.6438C30.7688 30.9375 30.3188 30.9375 30.3188 32.175C30.3188 32.9625 30.4313 33.3 30.5438 33.6938H31.5563C31.6126 33.75 31.6126 19.125 31.6126 19.125" fill="#89664C"/>
<path d="M29.925 1.63123C28.8562 3.14998 27.5625 0.393726 25.875 2.75623C24.1875 5.11873 25.0875 7.19998 25.5937 8.71873C26.6062 11.8125 24.525 12.7687 25.9312 15.3562C27.2812 17.9437 25.3125 19.1812 27.9 20.5875C30.4875 21.9937 29.1937 18.9562 31.8375 20.7562C34.4812 22.5562 34.8187 19.5187 34.5375 18.3937C33.975 16.3125 35.4937 15.8062 35.9437 14.0625C36.675 10.9687 34.2 9.28123 34.9875 6.35623C35.6625 3.48748 33.1312 -3.03752 29.925 1.63123" fill="#83BF4F"/>
<path d="M34.8749 6.4125C35.4936 4.21875 34.1999 0 32.1749 0C32.1749 0 33.5249 1.8 31.6124 4.05C29.6999 6.3 33.2436 7.425 31.6124 9.50625C29.9811 11.5875 33.1311 13.6125 31.8936 15.2438C30.3749 17.2688 27.9561 16.9875 29.3624 20.8687V20.925C29.9249 20.5875 29.9811 19.6313 31.7249 20.8125C34.3686 22.6125 34.7061 19.575 34.4249 18.45C33.8624 16.3687 35.3811 15.8625 35.8311 14.1188C36.6186 11.025 34.1436 9.3375 34.8749 6.4125" fill="#699635"/>
<path d="M32.5125 6.29998C32.1187 6.29998 32.7375 5.96248 32.7375 5.51248C32.7375 5.06248 32.1187 4.72498 32.5125 4.72498C32.9062 4.72498 33.3 5.06248 33.3 5.51248C33.3 5.96248 32.9625 6.29998 32.5125 6.29998ZM33.525 13.1062C32.9062 13.1062 33.8625 12.6 33.8625 11.9812C33.8625 11.3625 32.9062 10.8562 33.525 10.8562C34.1437 10.8562 34.65 11.3625 34.65 11.9812C34.65 12.6 34.1437 13.1062 33.525 13.1062ZM32.5125 18.8437C32.0625 18.8437 32.5125 18.45 32.5125 18C32.5125 17.55 32.0625 17.1562 32.5125 17.1562C32.9625 17.1562 33.3562 17.55 33.3562 18C33.3562 18.45 32.9625 18.8437 32.5125 18.8437ZM27.7312 6.80623C28.1812 6.80623 27.6187 7.19998 27.6187 7.64998C27.6187 8.09998 28.2375 8.49373 27.7312 8.49373C27.225 8.49373 26.8875 8.09998 26.8875 7.64998C26.8875 7.19998 27.2812 6.80623 27.7312 6.80623ZM29.5875 3.59998C30.2062 3.59998 29.3062 4.10623 29.3062 4.72498C29.3062 5.34373 30.2625 5.84998 29.5875 5.84998C28.9687 5.84998 28.4625 5.34373 28.4625 4.72498C28.4625 4.10623 28.9125 3.59998 29.5875 3.59998" fill="#83BF4F"/>
<path d="M29.0813 12.15C30.0375 12.15 28.6875 12.8813 28.6875 13.8375C28.6875 14.7938 29.9813 15.525 29.0813 15.525C28.125 15.525 27.3938 14.7938 27.3938 13.8375C27.3938 12.8813 28.125 12.15 29.0813 12.15ZM29.5875 9.05627C30.0375 9.05627 29.5875 9.45002 29.5875 9.90002C29.5875 10.35 30.0375 10.7438 29.5875 10.7438C29.1375 10.7438 28.7438 10.35 28.7438 9.90002C28.7438 9.45002 29.1375 9.05627 29.5875 9.05627Z" fill="#699635"/>
<path d="M32.6812 32.0625H32.9062V33.75H32.6812V32.0625Z" fill="#83BF4F"/>
<path d="M32.175 30.3187V31.6125C32.175 31.8375 32.3438 32.0625 32.625 32.0625H33.075V31.1625C33.0188 30.5437 32.175 30.3187 32.175 30.3187" fill="#C94747"/>
<path d="M33.4688 30.3187V31.6125C33.4688 31.8375 33.3001 32.0625 33.0188 32.0625H32.5688V31.1625C32.5688 30.5437 33.4688 30.3187 33.4688 30.3187" fill="#ED4C5C"/>
<path d="M35.1562 30.7687H35.3813V33.75H35.1562V30.7687Z" fill="#83BF4F"/>
<path d="M34.6499 28.9688V30.2625C34.6499 30.4875 34.8187 30.7125 35.0999 30.7125H35.5499V29.8125C35.4937 29.25 34.6499 28.9688 34.6499 28.9688" fill="#C94747"/>
<path d="M35.9437 28.9688V30.2625C35.9437 30.4875 35.775 30.7125 35.4937 30.7125H35.0437V29.8125C35.0437 29.25 35.9437 28.9688 35.9437 28.9688" fill="#ED4C5C"/>
<path d="M33.0188 28.2375V29.5312C33.0188 29.7562 33.1875 29.9812 33.4688 29.9812H33.9188V29.0812C33.9188 28.5187 33.0188 28.2375 33.0188 28.2375" fill="#F2B200"/>
<path d="M34.3687 28.2375V29.5312C34.3687 29.7562 34.2 29.9812 33.9187 29.9812H33.4688V29.0812C33.4688 28.5187 34.3687 28.2375 34.3687 28.2375" fill="#FFCE31"/>
<path d="M33.5813 30.0375H33.8063V33.75H33.5813V30.0375Z" fill="#83BF4F"/>
<path d="M31.2188 28.9125V30.2062C31.2188 30.4312 31.4437 30.6562 31.6687 30.6562H32.0625V29.8125C32.0625 29.1375 31.2188 28.9125 31.2188 28.9125Z" fill="#F2B200"/>
<path d="M32.5125 28.9125V30.2062C32.5125 30.4312 32.3438 30.6562 32.0625 30.6562H31.6125V29.8125C31.6125 29.1375 32.5125 28.9125 32.5125 28.9125" fill="#FFCE31"/>
<path d="M31.725 30.6562H31.95V33.75H31.725V30.6562ZM27.5625 32.0625H27.7875V33.75H27.5625V32.0625Z" fill="#83BF4F"/>
<path d="M27 30.3187V31.6125C27 31.8375 27.1687 32.0625 27.45 32.0625H27.9V31.1625C27.9 30.5437 27 30.3187 27 30.3187" fill="#C94747"/>
<path d="M28.35 30.3187V31.6125C28.35 31.8375 28.1812 32.0625 27.9 32.0625H27.45V31.1625C27.45 30.5437 28.35 30.3187 28.35 30.3187" fill="#ED4C5C"/>
<path d="M30.0376 30.7687H30.2626V33.75H30.0376V30.7687Z" fill="#83BF4F"/>
<path d="M29.4751 28.9688V30.2625C29.4751 30.4875 29.6438 30.7125 29.9251 30.7125H30.3751V29.8125C30.3751 29.25 29.4751 28.9688 29.4751 28.9688" fill="#C94747"/>
<path d="M30.825 28.9688V30.2625C30.825 30.4875 30.6563 30.7125 30.375 30.7125H29.925V29.8125C29.925 29.25 30.825 28.9688 30.825 28.9688" fill="#ED4C5C"/>
<path d="M27.8999 28.2375V29.5312C27.8999 29.7562 28.0687 29.9812 28.3499 29.9812H28.7999V29.0812C28.7999 28.5187 27.8999 28.2375 27.8999 28.2375" fill="#F2B200"/>
<path d="M29.1937 28.2375V29.5312C29.1937 29.7562 29.025 29.9812 28.7437 29.9812H28.2937V29.0812C28.35 28.5187 29.1937 28.2375 29.1937 28.2375" fill="#FFCE31"/>
<path d="M28.4624 30.0375H28.6874V33.75H28.4624V30.0375Z" fill="#83BF4F"/>
<path d="M26.0437 28.9125V30.2062C26.0437 30.4312 26.2125 30.6562 26.4937 30.6562H26.9437V29.8125C26.9437 29.1375 26.0437 28.9125 26.0437 28.9125" fill="#C94747"/>
<path d="M27.3937 28.9125V30.2062C27.3937 30.4312 27.2249 30.6562 26.9437 30.6562H26.4937V29.8125C26.4937 29.1375 27.3937 28.9125 27.3937 28.9125" fill="#ED4C5C"/>
<path d="M26.6062 30.6562H26.8312V33.75H26.6062V30.6562Z" fill="#83BF4F"/>
</g>
<defs>
<clipPath id="clip0_92_1258">
<rect width="36" height="36" fill="white"/>
</clipPath>
</defs>
</svg>
