<svg width="36" height="36" viewBox="0 0 36 36" fill="none" xmlns="http://www.w3.org/2000/svg">
<path d="M15.75 32.625C15.75 33.8625 16.7625 34.875 18 34.875C19.2375 34.875 20.25 33.8625 20.25 32.625H15.75Z" fill="#616466"/>
<path d="M14.0062 27H21.9375C22.3875 24.5812 23.9062 22.2187 25.4812 19.7437C27.3375 16.875 29.25 13.8938 29.25 11.025C29.25 5.56875 24.1875 1.125 18 1.125C11.8125 1.125 6.75 5.56875 6.75 11.025C6.75 13.8938 8.6625 16.875 10.4625 19.7437C12.0375 22.2187 13.5562 24.5812 14.0062 27" fill="#FFCE31"/>
<path d="M14.85 18.9C14.9062 19.2375 15.0187 19.575 15.075 19.9125C15.2437 20.5313 15.3562 21.0938 15.525 21.7125C16.0312 23.85 16.4812 25.65 16.875 27.0563H17.2125C16.9312 25.65 16.5375 23.7938 16.0312 21.6563C15.9187 21.0938 15.75 20.475 15.6375 19.8563C15.5812 19.575 15.525 19.2375 15.4125 18.9563C15.8625 18.8438 16.9312 18.5063 18 17.325C19.0687 18.5063 20.1375 18.8438 20.5875 18.9563C20.5312 19.2938 20.475 19.575 20.3625 19.8563C20.25 20.475 20.0812 21.0938 19.9687 21.6563C19.4625 23.7938 19.0687 25.65 18.7875 27.0563H19.125C19.4625 25.65 19.9687 23.85 20.475 21.7125C20.5875 21.15 20.7562 20.5313 20.925 19.9125C20.9812 19.575 21.0937 19.2375 21.15 18.9C21.6 18.8438 21.9937 18.7313 22.275 18.45C22.6125 18.1125 22.7812 17.7188 22.6687 17.2688C22.6125 17.0438 22.5 16.7625 22.1625 16.7063C21.9937 16.65 21.8812 16.65 21.7125 16.7063C21.5437 16.7625 21.4312 16.875 21.375 16.9313C21.0937 17.2688 20.9812 17.6063 20.8687 17.9438L20.7 18.45C20.7 18.45 20.25 18.5063 19.1812 17.775C18.6187 17.3813 18.45 17.1 18.2812 16.9313C18.45 16.7063 18.6187 16.5375 18.7875 16.2563C18.8437 16.0875 18.9 15.975 18.9562 15.75C18.9562 15.5813 18.9562 15.3563 18.8437 15.1875C18.7312 15.0188 18.6187 14.85 18.3375 14.7375C18.225 14.6813 18.1125 14.6813 18 14.6813C17.8875 14.6813 17.775 14.6813 17.6625 14.7375C17.4375 14.85 17.2687 15.0188 17.1562 15.1875C17.0437 15.3563 17.0437 15.5813 17.0437 15.75C17.0437 15.9188 17.1 16.0875 17.2125 16.2563C17.325 16.5375 17.4937 16.7625 17.7187 16.9313C17.55 17.1 17.3812 17.3813 16.8187 17.775C15.8062 18.45 15.3 18.45 15.3 18.45L15.1312 17.9438C15.0187 17.6063 14.9062 17.2688 14.625 16.9313C14.5687 16.875 14.4562 16.7625 14.2875 16.7063C14.1187 16.65 13.95 16.65 13.8375 16.7063C13.5 16.8188 13.3875 17.1 13.3312 17.2688C13.275 17.7188 13.4437 18.1125 13.725 18.45C14.0625 18.7313 14.4562 18.8438 14.85 18.9V18.9ZM21.375 18.0563C21.4875 17.775 21.6 17.4375 21.825 17.2688C21.8812 17.2125 21.9375 17.2125 21.9375 17.2125H22.05C22.1062 17.2125 22.1625 17.2688 22.2187 17.4375C22.275 17.6625 22.1625 18 21.9375 18.1688C21.7687 18.2813 21.5437 18.3938 21.3187 18.45C21.3187 18.2813 21.3187 18.1688 21.375 18.0563V18.0563ZM17.6625 15.3563C17.775 15.2438 17.8875 15.1313 18 15.1313C18.1125 15.1313 18.225 15.1875 18.3375 15.3563C18.45 15.525 18.3937 15.75 18.2812 15.975C18.225 16.1438 18.1125 16.3125 18 16.425C17.8875 16.2563 17.775 16.1438 17.7187 15.975C17.6062 15.8063 17.55 15.5813 17.6625 15.3563ZM13.8375 17.325C13.8375 17.2125 13.8937 17.1563 14.0062 17.1H14.1187C14.1187 17.1 14.175 17.1563 14.2312 17.1563C14.4 17.325 14.5687 17.6625 14.6812 17.9438C14.7375 18.0563 14.7375 18.1688 14.7937 18.2813C14.5687 18.225 14.3437 18.1688 14.175 18C13.95 17.8875 13.8375 17.6063 13.8375 17.325" fill="#C79127"/>
<path d="M14.0062 28.125H22.05V29.1375H14.0062V28.125ZM14.5687 30.15H21.4875V31.1625H14.5687V30.15Z" fill="#94989B"/>
<path d="M14.5687 29.1375H21.4875V30.15H14.5687V29.1375Z" fill="#616466"/>
<path d="M22.05 28.125L14.5687 30.15V31.2188L22.05 29.1375V28.125ZM15.1312 32.2312H20.925V33.2437H15.1312V32.2312Z" fill="#94989B"/>
<path d="M15.1312 31.2188H20.925V32.2312H15.1312V31.2188Z" fill="#616466"/>
<path d="M21.4875 30.15L15.1312 32.2313V33.3L21.4875 31.2188V30.15Z" fill="#94989B"/>
</svg>
