<svg width="36" height="36" viewBox="0 0 36 36" fill="none" xmlns="http://www.w3.org/2000/svg">
<path d="M34.875 31.275C34.875 33.3 29.8125 33.1875 29.8125 33.1875L15.6938 29.6438C14.6813 29.4188 13.8938 28.35 13.8938 27.225V15.1875L34.875 16.3688V31.275Z" fill="#5F6262"/>
<path d="M33.8625 7.53755L33.075 7.42505L29.1375 9.33755L28.575 34.1438C31.8375 31.3875 34.875 31.3313 34.875 31.3313V9.7313C34.875 8.8313 34.4812 8.0438 33.8625 7.53755Z" fill="#343434"/>
<path d="M29.3625 31.8938C29.3625 33.9188 27.9 35.2125 26.1563 34.8188L4.10627 29.4187C2.81252 29.0812 1.74377 27.45 1.74377 25.7625V7.59375L29.3625 9.39375V31.8938Z" fill="#5F6262"/>
<path d="M29.7562 18.3375C29.7562 20.3625 28.0687 21.8812 26.3249 21.5437L4.2187 17.8875C2.92495 17.6625 1.8562 16.0875 1.8562 14.4L2.58745 6.97498L29.8687 9.16873L29.7562 18.3375Z" fill="#343434"/>
<path d="M2.58752 6.46875C0.506275 7.875 0.506275 16.5375 3.54378 16.5375L25.65 19.9688C27.3938 20.25 28.8563 18.7875 28.8563 16.7625C28.8563 16.7625 28.1813 10.1813 29.4188 9.3375L30.4313 8.8875L2.58752 6.46875" fill="#5F6262"/>
<path d="M17.4375 14.9625L11.475 14.175L10.4062 18.3375L11.475 21.4313L17.4375 22.5V14.9625Z" fill="#65562D"/>
<path d="M11.475 14.175L10.4062 18.3375L16.3688 19.2375L17.4375 14.9625L11.475 14.175Z" fill="#F8ECC5"/>
<path d="M11.475 21.4313L17.4375 22.5L16.3688 19.2375L10.4062 18.3375L11.475 21.4313Z" fill="#BFAE6E"/>
<path d="M31.8938 6.8625L11.7 5.0625L4.05005 5.9625L3.71255 6.01875C3.3188 6.075 2.92505 6.24375 2.6438 6.46875L29.475 9.39375L32.2875 8.15625C34.5938 7.03125 34.875 9.05625 34.875 9.05625C34.5375 7.25625 32.9063 6.975 31.8938 6.8625" fill="#919193"/>
<path d="M10.5188 5.73755C10.5188 3.3188 12.4313 3.2063 12.8813 3.03755C13.275 2.92505 13.5563 2.5313 13.4438 2.1938C13.3313 1.8563 12.9375 1.80005 12.5437 1.80005C11.25 1.80005 9 2.36255 9 5.73755C9.05625 6.1313 10.5188 6.1313 10.5188 5.73755" fill="#BFAE6E"/>
<path d="M10.2375 5.5688C10.1813 5.2313 10.1813 4.8938 10.2938 4.5563C10.35 4.2188 10.5188 3.8813 10.7438 3.6563C10.9688 3.37505 11.3063 3.2063 11.5875 3.0938C11.925 2.9813 12.2625 2.92505 12.6 2.92505C12.2625 3.03755 11.9813 3.15005 11.7 3.26255C11.4188 3.4313 11.1375 3.60005 10.9688 3.82505C10.5188 4.27505 10.35 4.8938 10.2375 5.5688Z" fill="#65562D"/>
<path d="M24.5812 3.88124C24.525 4.83749 23.6812 5.56874 22.725 5.45624L12.3187 4.61249C11.3625 4.55624 10.6312 3.71249 10.7437 2.75624C10.8 1.79999 11.6437 1.06874 12.6 1.18124L22.95 2.02499C23.9625 2.08124 24.6937 2.92499 24.5812 3.88124" fill="#5F6262"/>
<path d="M24.5813 3.88123C24.525 4.49998 23.7375 4.89373 22.7813 4.78123L12.375 3.93748C11.4188 3.88123 10.6875 3.31873 10.7438 2.69998C10.8 2.08123 11.5875 1.68748 12.5438 1.74373L22.8938 2.58748C23.9063 2.75623 24.6375 3.26248 24.5813 3.88123" fill="#343434"/>
<path d="M24.75 7.36874C24.75 5.90624 23.6813 5.00624 23.0625 4.72499C22.1063 4.33124 22.8938 2.64374 23.7938 3.09374C24.9188 3.59999 26.4375 5.17499 26.4375 7.36874C26.4938 7.87499 24.75 7.87499 24.75 7.36874" fill="#BFAE6E"/>
<path d="M24.975 7.36875C24.8625 6.69375 24.6937 6.075 24.3 5.56875C23.9625 5.0625 23.5125 4.55625 22.95 4.21875C23.2875 4.275 23.5687 4.44375 23.85 4.66875C24.1312 4.89375 24.3562 5.11875 24.525 5.4C24.9187 6.01875 25.0875 6.69375 24.975 7.36875Z" fill="#65562D"/>
</svg>
