<svg width="17" height="20" viewBox="0 0 17 20" fill="none" xmlns="http://www.w3.org/2000/svg">
<path d="M8.5001 0C7.21189 0 5.97644 0.511739 5.06554 1.42264C4.15464 2.33354 3.6429 3.56899 3.6429 4.8572C3.6429 6.14541 4.15464 7.38086 5.06554 8.29176C5.97644 9.20266 7.21189 9.7144 8.5001 9.7144C9.78831 9.7144 11.0238 9.20266 11.9347 8.29176C12.8456 7.38086 13.3573 6.14541 13.3573 4.8572C13.3573 3.56899 12.8456 2.33354 11.9347 1.42264C11.0238 0.511739 9.78831 0 8.5001 0ZM2.43953 10.9287C2.11973 10.9274 1.80282 10.9893 1.50698 11.1107C1.21113 11.2322 0.94218 11.4109 0.715537 11.6365C0.488894 11.8621 0.309021 12.1303 0.186233 12.4256C0.0634446 12.7209 0.000157266 13.0375 0 13.3573C0 15.4107 1.01151 16.9589 2.59253 17.968C4.14926 18.9601 6.24757 19.4288 8.5001 19.4288C10.7526 19.4288 12.8509 18.9601 14.4077 17.968C15.9887 16.9601 17.0002 15.4095 17.0002 13.3573C17.0002 12.7132 16.7443 12.0955 16.2889 11.64C15.8334 11.1846 15.2157 10.9287 14.5716 10.9287H2.43953Z" fill="#F27059"/>
</svg>
