<svg width="14" height="7" viewBox="0 0 14 7" fill="none" xmlns="http://www.w3.org/2000/svg">
<path d="M1.1238 0.188035C0.995376 0.0666774 0.824003 0.00130619 0.647382 0.00630257C0.47076 0.0112989 0.303357 0.0862538 0.181999 0.214677C0.0606415 0.343101 -0.00472965 0.514473 0.000266719 0.691095C0.00526309 0.867717 0.0802176 1.03512 0.208641 1.15648L6.20313 6.81794C6.3268 6.93486 6.49053 7 6.66071 7C6.83089 7 6.99462 6.93486 7.11829 6.81794L13.1134 1.15648C13.1784 1.09678 13.2309 1.02477 13.2678 0.94463C13.3047 0.864486 13.3254 0.777805 13.3285 0.689623C13.3316 0.601442 13.3172 0.513516 13.2861 0.430954C13.2549 0.348392 13.2077 0.272839 13.1471 0.208685C13.0865 0.14453 13.0138 0.0930518 12.9332 0.0572406C12.8525 0.0214294 12.7656 0.00199891 12.6774 7.76922e-05C12.5891 -0.00184352 12.5014 0.0137825 12.4193 0.0460489C12.3372 0.0783152 12.2623 0.126579 12.199 0.188035L6.66071 5.41789L1.1238 0.188035V0.188035Z" fill="white"/>
</svg>
