<svg width="17" height="18" viewBox="0 0 17 18" fill="none" xmlns="http://www.w3.org/2000/svg">
<path d="M0.0252172 6.16431C0.411992 4.96917 1.04752 3.8695 1.88995 2.9377C1.95961 2.86071 2.05058 2.80617 2.1513 2.78099C2.25203 2.7558 2.35796 2.76112 2.45565 2.79627L4.46495 3.51492C4.608 3.566 4.76043 3.58537 4.9117 3.57167C5.06297 3.55798 5.20946 3.51155 5.341 3.43562C5.47254 3.35968 5.586 3.25605 5.67351 3.1319C5.76102 3.00776 5.82049 2.86607 5.84779 2.71665L6.23121 0.615162C6.24973 0.512863 6.29827 0.418388 6.37065 0.343765C6.44304 0.269142 6.53599 0.217747 6.63768 0.196122C7.86532 -0.0653739 9.13427 -0.0653739 10.3619 0.196122C10.4634 0.217931 10.5561 0.269408 10.6283 0.344017C10.7005 0.418626 10.7489 0.513002 10.7673 0.615162L11.1518 2.71665C11.1791 2.86607 11.2386 3.00776 11.3261 3.1319C11.4136 3.25605 11.527 3.35968 11.6586 3.43562C11.7901 3.51155 11.9366 3.55798 12.0879 3.57167C12.2392 3.58537 12.3916 3.566 12.5346 3.51492L14.5439 2.79627C14.6417 2.76125 14.7477 2.7561 14.8485 2.78146C14.9492 2.80683 15.0401 2.86158 15.1096 2.93874C15.9519 3.87024 16.5875 4.96954 16.9744 6.16431C17.0063 6.263 17.0082 6.36895 16.9799 6.46873C16.9515 6.5685 16.8942 6.65762 16.8151 6.72478L15.1861 8.10761C15.0704 8.20596 14.9774 8.32829 14.9137 8.46613C14.8499 8.60396 14.8169 8.75402 14.8169 8.90588C14.8169 9.05775 14.8499 9.2078 14.9137 9.34564C14.9774 9.48348 15.0704 9.60581 15.1861 9.70416L16.8151 11.087C16.8942 11.1541 16.9515 11.2433 16.9799 11.343C17.0082 11.4428 17.0063 11.5488 16.9744 11.6475C16.5876 12.8426 15.9521 13.9423 15.1096 14.8741C15.04 14.9511 14.949 15.0056 14.8483 15.0308C14.7476 15.056 14.6416 15.0506 14.5439 15.0155L12.5346 14.2968C12.3916 14.2458 12.2392 14.2264 12.0879 14.2401C11.9366 14.2538 11.7901 14.3002 11.6586 14.3762C11.527 14.4521 11.4136 14.5557 11.3261 14.6799C11.2386 14.804 11.1791 14.9457 11.1518 15.0951L10.7673 17.1977C10.7487 17.2996 10.7002 17.3938 10.6281 17.4682C10.5559 17.5426 10.4633 17.5939 10.3619 17.6156C9.13427 17.8772 7.86531 17.8772 6.63768 17.6156C6.53599 17.594 6.44304 17.5426 6.37065 17.468C6.29827 17.3934 6.24973 17.2989 6.23121 17.1966L5.84884 15.0951C5.82153 14.9457 5.76207 14.804 5.67456 14.6799C5.58705 14.5557 5.47359 14.4521 5.34205 14.3762C5.2105 14.3002 5.06402 14.2538 4.91275 14.2401C4.76148 14.2264 4.60904 14.2458 4.466 14.2968L2.45565 15.0155C2.35786 15.0505 2.25186 15.0557 2.15113 15.0303C2.0504 15.0049 1.95949 14.9502 1.88995 14.873C1.04762 13.9415 0.412097 12.8422 0.0252172 11.6475C-0.00659767 11.5487 -0.00834758 11.4427 0.0201894 11.3429C0.0487263 11.2431 0.106264 11.154 0.1855 11.087L1.81347 9.70416C1.9292 9.60581 2.02215 9.48348 2.0859 9.34564C2.14965 9.2078 2.18267 9.05775 2.18267 8.90588C2.18267 8.75402 2.14965 8.60396 2.0859 8.46613C2.02215 8.32829 1.9292 8.20596 1.81347 8.10761L0.1855 6.72478C0.106264 6.65775 0.0487263 6.56869 0.0201894 6.4689C-0.00834758 6.36911 -0.00659767 6.2631 0.0252172 6.16431V6.16431ZM6.40511 8.90588C6.40511 9.46157 6.62586 9.99449 7.01878 10.3874C7.41171 10.7803 7.94463 11.0011 8.50032 11.0011C9.056 11.0011 9.58892 10.7803 9.98185 10.3874C10.3748 9.99449 10.5955 9.46157 10.5955 8.90588C10.5955 8.3502 10.3748 7.81728 9.98185 7.42435C9.58892 7.03142 9.056 6.81068 8.50032 6.81068C7.94463 6.81068 7.41171 7.03142 7.01878 7.42435C6.62586 7.81728 6.40511 8.3502 6.40511 8.90588V8.90588Z" fill="white"/>
</svg>
