<svg width="36" height="36" viewBox="0 0 36 36" fill="none" xmlns="http://www.w3.org/2000/svg">
<path d="M4.10625 30.2625H31.8938C32.3438 30.2625 32.6812 29.925 32.6812 29.475V10.9125C32.6812 10.4625 32.3438 10.125 31.8938 10.125H4.10625C3.7125 10.125 3.375 10.4625 3.375 10.9125V29.475C3.375 29.925 3.7125 30.2625 4.10625 30.2625ZM1.125 33.0188C1.125 33.9188 1.85625 34.875 2.8125 34.875H33.1875C34.0875 34.875 34.875 33.9188 34.875 33.0188H1.125Z" fill="#212528"/>
<path d="M32.0625 30.2625H3.9375L1.125 33.0187H34.875L32.0625 30.2625Z" fill="#DDDDDD"/>
<path d="M31.1062 30.4875H4.89375L3.9375 31.6125H32.0625L31.1062 30.4875Z" fill="#BFBEBE"/>
<path d="M20.8687 32.1188H15.1312L14.6812 32.7375H21.3187L20.8687 32.1188Z" fill="#212528"/>
<path d="M5.0625 11.8125H30.9375V28.575H5.0625V11.8125Z" fill="#3E4347"/>
<path d="M18 11.475C18.2486 11.475 18.45 11.2735 18.45 11.025C18.45 10.7764 18.2486 10.575 18 10.575C17.7515 10.575 17.55 10.7764 17.55 11.025C17.55 11.2735 17.7515 11.475 18 11.475Z" fill="#DDDDDD"/>
<path d="M20.4187 34.2H15.5812C15.4124 34.2 14.9624 34.2 14.9624 33.6375H21.0374C21.0374 34.2 20.5874 34.2 20.4187 34.2" fill="#3E4347"/>
</svg>
