<svg width="22" height="17" viewBox="0 0 22 17" fill="none" xmlns="http://www.w3.org/2000/svg">
<path d="M3.64311 13.9627V9.91282L8.51031 12.7071C9.24642 13.1298 10.0805 13.3523 10.9293 13.3523C11.7782 13.3523 12.6122 13.1298 13.3484 12.7071L18.2156 9.91403V13.9627C18.2157 14.0425 18.2001 14.1216 18.1697 14.1953C18.1393 14.2691 18.0946 14.3361 18.0383 14.3926L18.0358 14.3938L18.0334 14.3975L18.0249 14.4048L17.997 14.4315L17.8998 14.5214C17.7811 14.6255 17.6592 14.7259 17.5343 14.8225C17.0981 15.1574 16.6346 15.4552 16.1487 15.7127C14.5415 16.5652 12.7486 17.0074 10.9293 16.9999C9.11006 17.0074 7.31714 16.5652 5.70997 15.7127C5.22445 15.4551 4.76137 15.1574 4.32559 14.8225C4.16534 14.699 4.01057 14.5685 3.8617 14.4315L3.83377 14.4048C3.77426 14.3474 3.72675 14.2788 3.69402 14.2029C3.66129 14.127 3.64398 14.0454 3.64311 13.9627V13.9627ZM21.5539 6.59637L12.7436 11.6542C12.1915 11.9713 11.566 12.1381 10.9293 12.1381C10.2927 12.1381 9.66715 11.9713 9.11506 11.6542L1.21437 7.11855V12.7484C1.21437 12.9094 1.1504 13.0638 1.03653 13.1777C0.922661 13.2916 0.768221 13.3556 0.607185 13.3556C0.44615 13.3556 0.29171 13.2916 0.17784 13.1777C0.0639712 13.0638 9.34216e-08 12.9094 9.34216e-08 12.7484V6.06934C-6.06242e-05 5.95986 0.0294764 5.85241 0.085485 5.75835C0.141494 5.66429 0.22189 5.58712 0.318165 5.53501L9.11506 0.484448C9.66703 0.167043 10.2926 0 10.9293 0C11.5661 0 12.1916 0.167043 12.7436 0.484448L21.5539 5.54351C21.6464 5.59673 21.7234 5.67341 21.7768 5.76584C21.8303 5.85826 21.8585 5.96316 21.8585 6.06994C21.8585 6.17673 21.8303 6.28162 21.7768 6.37405C21.7234 6.46648 21.6464 6.54316 21.5539 6.59637V6.59637Z" fill="#F27059"/>
</svg>
