<svg width="18" height="25" viewBox="0 0 18 25" fill="none" xmlns="http://www.w3.org/2000/svg">
<path d="M5.13236 5.30294e-07C4.74754 -0.000295899 4.3729 0.123691 4.06423 0.353504C3.75556 0.583317 3.52936 0.906668 3.4193 1.27542L0.0556947 12.5684C-0.00383787 12.7684 -0.0158429 12.9795 0.020636 13.1849C0.057115 13.3904 0.14107 13.5844 0.265811 13.7517C0.390551 13.9189 0.55263 14.0547 0.739132 14.1483C0.925634 14.2418 1.1314 14.2905 1.34005 14.2904H4.16776L1.8813 22.1305C1.19536 24.4813 4.24636 26.0604 5.77186 24.1454L17.574 9.31914C17.731 9.12177 17.8292 8.88407 17.8571 8.63338C17.8851 8.3827 17.8417 8.12922 17.7319 7.9021C17.6222 7.67498 17.4506 7.48346 17.2368 7.34956C17.0231 7.21566 16.7758 7.14483 16.5236 7.14521H12.8974L14.673 2.41329C14.7742 2.14324 14.8086 1.85269 14.7731 1.56647C14.7376 1.28026 14.6333 1.0069 14.4692 0.769746C14.3051 0.532596 14.086 0.338712 13.8306 0.204666C13.5752 0.0706195 13.2912 0.000397118 13.0028 5.30294e-07H5.13236Z" fill="#F27059"/>
</svg>
