<svg width="20" height="26" viewBox="0 0 20 26" fill="none" xmlns="http://www.w3.org/2000/svg">
<path d="M3.24999 0C2.38804 0 1.56139 0.342408 0.951899 0.951899C0.342408 1.56139 0 2.38804 0 3.24999V22.7499C0 23.6119 0.342408 24.4385 0.951899 25.048C1.56139 25.6575 2.38804 25.9999 3.24999 25.9999H18.6874C18.9029 25.9999 19.1096 25.9143 19.262 25.7619C19.4143 25.6096 19.4999 25.4029 19.4999 25.1874C19.4999 24.9719 19.4143 24.7653 19.262 24.6129C19.1096 24.4605 18.9029 24.3749 18.6874 24.3749H3.24999C2.81901 24.3749 2.40569 24.2037 2.10094 23.899C1.7962 23.5942 1.62499 23.1809 1.62499 22.7499H17.8749C18.3059 22.7499 18.7192 22.5787 19.024 22.274C19.3287 21.9692 19.4999 21.5559 19.4999 21.1249V3.24999C19.4999 2.38804 19.1575 1.56139 18.548 0.951899C17.9385 0.342408 17.1119 0 16.2499 0H3.24999ZM4.46873 4.06248H15.0312C15.3544 4.06248 15.6644 4.19089 15.893 4.41945C16.1215 4.64801 16.2499 4.958 16.2499 5.28123C16.2499 5.60446 16.1215 5.91445 15.893 6.14301C15.6644 6.37157 15.3544 6.49998 15.0312 6.49998H4.46873C4.1455 6.49998 3.83551 6.37157 3.60695 6.14301C3.37839 5.91445 3.24999 5.60446 3.24999 5.28123C3.24999 4.958 3.37839 4.64801 3.60695 4.41945C3.83551 4.19089 4.1455 4.06248 4.46873 4.06248Z" fill="#1B1A44"/>
</svg>
