<svg width="30" height="34" viewBox="0 0 30 34" fill="none" xmlns="http://www.w3.org/2000/svg">
<path d="M3.18749 0C2.34212 0 1.53137 0.335824 0.933595 0.933594C0.335824 1.53136 0 2.34212 0 3.18749V30.8124C0 31.6578 0.335824 32.4685 0.933595 33.0663C1.53137 33.6641 2.34212 33.9999 3.18749 33.9999H18.0624C18.9078 33.9999 19.7186 33.6641 20.3163 33.0663C20.9141 32.4685 21.2499 31.6578 21.2499 30.8124V27.6249C21.2499 27.3431 21.138 27.0729 20.9387 26.8736C20.7395 26.6744 20.4692 26.5624 20.1874 26.5624C19.3098 26.5624 18.7488 26.3457 18.3684 26.0609C17.9796 25.7698 17.6842 25.3342 17.4675 24.7371C17.0127 23.4876 17 21.8322 17 20.1874C16.9999 20.0477 16.9723 19.9093 16.9187 19.7802C16.8651 19.6511 16.7866 19.5339 16.6876 19.4352L16.0798 18.8253L13.5022 16.2477C12.5098 15.2553 12.2187 14.5902 12.1635 14.2183C12.121 13.9208 12.2102 13.7211 12.4227 13.5171C12.8775 13.0815 13.2026 12.7861 13.5702 12.6968C13.7891 12.6416 14.2885 12.6033 15.1852 13.5001L21.5602 19.8751C21.7594 20.0746 22.0297 20.1868 22.3117 20.187C22.4513 20.1871 22.5896 20.1597 22.7186 20.1063C22.8476 20.053 22.9648 19.9748 23.0636 19.8761C23.1624 19.7775 23.2408 19.6603 23.2943 19.5314C23.3478 19.4025 23.3754 19.2642 23.3755 19.1246C23.3756 18.985 23.3482 18.8468 23.2949 18.7177C23.2416 18.5887 23.1633 18.4715 23.0647 18.3727L21.2499 16.5601V10.0023L26.6899 15.4423C26.9863 15.7383 27.2213 16.0897 27.3818 16.4766C27.5422 16.8635 27.6248 17.2781 27.6249 17.6969V32.9374C27.6249 33.2192 27.7369 33.4894 27.9361 33.6887C28.1354 33.888 28.4056 33.9999 28.6874 33.9999C28.9692 33.9999 29.2395 33.888 29.4387 33.6887C29.638 33.4894 29.7499 33.2192 29.7499 32.9374V17.6969C29.7496 16.2886 29.1901 14.938 28.1944 13.9421L21.2499 6.9976V3.18749C21.2499 2.34212 20.9141 1.53136 20.3163 0.933594C19.7186 0.335824 18.9078 0 18.0624 0H3.18749ZM19.1249 7.43748V14.4351L16.6897 11.9977C15.4593 10.7695 14.2375 10.3466 13.0666 10.6313C12.8366 10.6881 12.6135 10.7701 12.4015 10.8757C11.4516 10.6006 10.4507 10.5501 9.47796 10.7283C8.50521 10.9065 7.58723 11.3085 6.79658 11.9025C6.00592 12.4965 5.36425 13.2663 4.92228 14.151C4.48031 15.0357 4.25015 16.011 4.24999 16.9999C4.2499 18.2323 4.60702 19.4383 5.27812 20.4719C5.94923 21.5056 6.90554 22.3225 8.03131 22.8239C9.15709 23.3253 10.4041 23.4897 11.6213 23.297C12.8385 23.1044 13.9739 22.5631 14.8898 21.7387C14.926 22.9669 15.0492 24.3099 15.47 25.4638C15.7845 26.3287 16.286 27.1553 17.0935 27.7588L17.1062 27.7715C16.4591 27.975 15.8938 28.3797 15.4926 28.9265C15.0913 29.4734 14.8749 30.1341 14.875 30.8124V31.8749H6.37498V30.8124C6.37498 29.967 6.03916 29.1563 5.44139 28.5585C4.84362 27.9607 4.03287 27.6249 3.18749 27.6249H2.12499V6.37498H3.18749C4.03287 6.37498 4.84362 6.03916 5.44139 5.44139C6.03916 4.84362 6.37498 4.03287 6.37498 3.18749V2.12499H14.875V3.18749C14.875 4.03287 15.2108 4.84362 15.8086 5.44139C16.4063 6.03916 17.2171 6.37498 18.0624 6.37498H19.1249V7.43748ZM19.1249 30.8124V30.8315C19.1199 31.11 19.0058 31.3754 18.8071 31.5705C18.6084 31.7656 18.341 31.875 18.0624 31.8749H17V30.8124C17 30.5306 17.1119 30.2604 17.3111 30.0611C17.5104 29.8619 17.7807 29.7499 18.0624 29.7499H19.1249V30.8124ZM6.37498 16.9999C6.375 15.9191 6.78679 14.8789 7.52658 14.091C8.26636 13.303 9.27856 12.8266 10.3572 12.7585C10.0937 13.2472 9.95985 13.8422 10.0618 14.5286C10.2127 15.5528 10.8651 16.6175 11.9977 17.7501L13.9251 19.6774C13.3718 20.3593 12.6209 20.853 11.7756 21.0907C10.9303 21.3285 10.0321 21.2985 9.20448 21.005C8.37688 20.7115 7.66051 20.1689 7.15384 19.4517C6.64717 18.7346 6.37508 17.878 6.37498 16.9999V16.9999ZM4.24999 2.12499V3.18749C4.24999 3.46928 4.13805 3.73953 3.93879 3.93879C3.73953 4.13805 3.46928 4.24999 3.18749 4.24999H2.12499V3.18749C2.12499 2.9057 2.23694 2.63545 2.43619 2.43619C2.63545 2.23694 2.9057 2.12499 3.18749 2.12499H4.24999ZM2.12499 29.7499H3.18749C3.46928 29.7499 3.73953 29.8619 3.93879 30.0611C4.13805 30.2604 4.24999 30.5306 4.24999 30.8124V31.8749H3.18749C2.9057 31.8749 2.63545 31.763 2.43619 31.5637C2.23694 31.3645 2.12499 31.0942 2.12499 30.8124V29.7499ZM19.1249 4.24999H18.0624C17.7807 4.24999 17.5104 4.13805 17.3111 3.93879C17.1119 3.73953 17 3.46928 17 3.18749V2.12499H18.0624C18.3442 2.12499 18.6145 2.23694 18.8137 2.43619C19.013 2.63545 19.1249 2.9057 19.1249 3.18749V4.24999Z" fill="#9C9C9C"/>
</svg>
