<svg width="20" height="20" viewBox="0 0 20 20" fill="none" xmlns="http://www.w3.org/2000/svg">
<path d="M0 1.87248C0 0.837491 0.838742 0 1.87498 0H3.12497C4.15871 0 4.9987 0.837491 4.9987 1.87248V18.0998C4.9987 19.1336 4.15871 19.971 3.12372 19.971H1.87373C0.838742 19.971 0 19.1336 0 18.0998V1.87248V1.87248ZM1.87498 1.24749C1.70922 1.24749 1.55025 1.31333 1.43304 1.43054C1.31583 1.54775 1.24999 1.70672 1.24999 1.87248V18.0998C1.25032 18.2654 1.31631 18.424 1.43349 18.5409C1.55066 18.6579 1.70944 18.7236 1.87498 18.7236H3.12497C3.29051 18.7232 3.44916 18.6572 3.5661 18.5401C3.68304 18.4229 3.74871 18.2641 3.74871 18.0986V1.87373C3.74871 1.70797 3.68286 1.549 3.56566 1.43179C3.44845 1.31458 3.28948 1.24874 3.12372 1.24874H1.87373L1.87498 1.24749ZM6.24744 1.87248C6.24744 0.837491 7.08743 0 8.12242 0H9.37241C10.4074 0 11.2461 0.837491 11.2461 1.87248V18.0998C11.2461 19.1336 10.4074 19.971 9.37115 19.971H8.12117C7.08743 19.971 6.24744 19.1336 6.24744 18.0998V1.87248V1.87248ZM8.12242 1.24749C7.95666 1.24749 7.79769 1.31333 7.68048 1.43054C7.56327 1.54775 7.49742 1.70672 7.49742 1.87248V18.0998C7.49776 18.2654 7.56375 18.424 7.68092 18.5409C7.79809 18.6579 7.95688 18.7236 8.12242 18.7236H9.37241C9.53816 18.7236 9.69713 18.6577 9.81434 18.5405C9.93155 18.4233 9.9974 18.2643 9.9974 18.0986V1.87373C9.9974 1.70797 9.93155 1.549 9.81434 1.43179C9.69713 1.31458 9.53816 1.24874 9.37241 1.24874H8.12242V1.24749ZM17.1473 5.1962C17.0902 4.94875 16.9834 4.71549 16.8335 4.51055C16.6835 4.30562 16.4934 4.13329 16.2749 4.00401C16.0563 3.87473 15.8137 3.7912 15.5619 3.75849C15.3101 3.72578 15.0542 3.74457 14.8098 3.81371L13.8786 4.07621C13.4239 4.20483 13.0347 4.50061 12.7889 4.90423C12.5432 5.30784 12.4591 5.78944 12.5536 6.25244L15.0573 18.5023C15.1085 18.7506 15.2095 18.9859 15.3541 19.194C15.4988 19.4022 15.6841 19.5788 15.899 19.7133C16.1139 19.8478 16.3538 19.9373 16.6042 19.9764C16.8546 20.0156 17.1104 20.0035 17.3561 19.941L18.5873 19.6286C19.5748 19.3786 20.1798 18.3861 19.9523 17.3948L17.1473 5.19495V5.1962ZM15.1498 5.01495C15.2313 4.99176 15.3166 4.98537 15.4006 4.99615C15.4846 5.00694 15.5655 5.03469 15.6385 5.07771C15.7114 5.12073 15.7749 5.17812 15.8249 5.24641C15.875 5.31469 15.9107 5.39245 15.9298 5.47494L18.7336 17.6748C18.7696 17.8336 18.7421 18.0002 18.6572 18.1391C18.5722 18.278 18.4363 18.3783 18.2786 18.4186L17.0473 18.7311C16.9655 18.7519 16.8803 18.7559 16.7969 18.743C16.7134 18.73 16.6335 18.7002 16.5619 18.6554C16.4903 18.6107 16.4285 18.5519 16.3802 18.4826C16.332 18.4133 16.2982 18.335 16.2811 18.2523L13.7774 6.00244C13.7462 5.84824 13.7743 5.68795 13.8561 5.55356C13.9378 5.41917 14.0673 5.32057 14.2186 5.27745L15.1498 5.01495V5.01495Z" fill="#1B1A44"/>
</svg>
