<svg width="12" height="12" viewBox="0 0 12 12" fill="none" xmlns="http://www.w3.org/2000/svg">
<path d="M9.85714 0C10.4255 0 10.9705 0.225765 11.3724 0.627628C11.7742 1.02949 12 1.57454 12 2.14286V9.85714C12 10.4255 11.7742 10.9705 11.3724 11.3724C10.9705 11.7742 10.4255 12 9.85714 12H2.14286C1.57454 12 1.02949 11.7742 0.627628 11.3724C0.225765 10.9705 0 10.4255 0 9.85714V2.14286C0 1.57454 0.225765 1.02949 0.627628 0.627628C1.02949 0.225765 1.57454 0 2.14286 0H9.85714ZM11.1429 3.42857H0.857143V9.85714C0.857143 10.1981 0.992601 10.5252 1.23372 10.7663C1.47484 11.0074 1.80186 11.1429 2.14286 11.1429H9.85714C10.1981 11.1429 10.5252 11.0074 10.7663 10.7663C11.0074 10.5252 11.1429 10.1981 11.1429 9.85714V3.42857ZM9.85714 0.857143H2.14286C1.80186 0.857143 1.47484 0.992601 1.23372 1.23372C0.992601 1.47484 0.857143 1.80186 0.857143 2.14286V2.57143H11.1429V2.14286C11.1429 1.80186 11.0074 1.47484 10.7663 1.23372C10.5252 0.992601 10.1981 0.857143 9.85714 0.857143Z" fill="#9C9C9C"/>
</svg>
