<svg width="8" height="16" viewBox="0 0 8 16" fill="none" xmlns="http://www.w3.org/2000/svg">
<path d="M7.78516 1.28435C7.92385 1.13758 7.99856 0.941725 7.99285 0.73987C7.98714 0.538015 7.90148 0.346696 7.75471 0.208C7.60794 0.069305 7.41208 -0.00540536 7.21023 0.000304824C7.00837 0.006015 6.81705 0.091678 6.67836 0.238449L0.208071 7.08934C0.0744511 7.23068 0 7.4178 0 7.61229C0 7.80679 0.0744511 7.99391 0.208071 8.13525L6.67836 14.9869C6.74658 15.0612 6.82888 15.1211 6.92047 15.1633C7.01207 15.2055 7.11113 15.2291 7.21191 15.2327C7.31269 15.2362 7.41318 15.2198 7.50753 15.1842C7.60189 15.1486 7.68824 15.0946 7.76156 15.0254C7.83488 14.9561 7.89371 14.873 7.93464 14.7809C7.97557 14.6887 7.99777 14.5893 7.99997 14.4885C8.00216 14.3877 7.98431 14.2874 7.94743 14.1936C7.91055 14.0997 7.85539 14.0141 7.78516 13.9418L1.80814 7.61229L7.78516 1.28435V1.28435Z" fill="black"/>
</svg>
