<svg width="8" height="16" viewBox="0 0 8 16" fill="none" xmlns="http://www.w3.org/2000/svg">
<path d="M7.78492 1.28431C7.92361 1.13755 7.99832 0.941696 7.99261 0.739847C7.9869 0.537998 7.90124 0.346685 7.75447 0.207994C7.6077 0.0693029 7.41185 -0.00540519 7.21 0.000304814C7.00816 0.00601482 6.81684 0.0916751 6.67815 0.238441L0.208065 7.08912C0.0744488 7.23045 0 7.41757 0 7.61206C0 7.80655 0.0744488 7.99366 0.208065 8.13499L6.67815 14.9864C6.74637 15.0607 6.82867 15.1207 6.92026 15.1629C7.01185 15.205 7.11091 15.2286 7.21169 15.2322C7.31246 15.2358 7.41295 15.2193 7.5073 15.1837C7.60166 15.1481 7.688 15.0942 7.76132 15.0249C7.83464 14.9557 7.89347 14.8726 7.93439 14.7804C7.97532 14.6882 7.99752 14.5889 7.99972 14.4881C8.00192 14.3872 7.98406 14.287 7.94718 14.1931C7.91031 14.0993 7.85515 14.0137 7.78492 13.9413L1.80808 7.61206L7.78492 1.28431V1.28431Z" fill="black"/>
</svg>
